%TF.GenerationSoftware,KiCad,Pcbnew,(6.0.5)*%
%TF.CreationDate,2022-10-16T21:39:42+03:00*%
%TF.ProjectId,LED_MATRIX,4c45445f-4d41-4545-9249-582e6b696361,rev?*%
%TF.SameCoordinates,Original*%
%TF.FileFunction,Legend,Top*%
%TF.FilePolarity,Positive*%
%FSLAX46Y46*%
G04 Gerber Fmt 4.6, Leading zero omitted, Abs format (unit mm)*
G04 Created by KiCad (PCBNEW (6.0.5)) date 2022-10-16 21:39:42*
%MOMM*%
%LPD*%
G01*
G04 APERTURE LIST*
%ADD10C,0.150000*%
%ADD11C,0.200000*%
%ADD12C,0.120000*%
%ADD13C,0.160000*%
G04 APERTURE END LIST*
D10*
X57461904Y-135852380D02*
X57461904Y-136566666D01*
X57414285Y-136709523D01*
X57319047Y-136804761D01*
X57176190Y-136852380D01*
X57080952Y-136852380D01*
X58414285Y-136852380D02*
X57938095Y-136852380D01*
X57938095Y-135852380D01*
X59319047Y-136757142D02*
X59271428Y-136804761D01*
X59128571Y-136852380D01*
X59033333Y-136852380D01*
X58890476Y-136804761D01*
X58795238Y-136709523D01*
X58747619Y-136614285D01*
X58700000Y-136423809D01*
X58700000Y-136280952D01*
X58747619Y-136090476D01*
X58795238Y-135995238D01*
X58890476Y-135900000D01*
X59033333Y-135852380D01*
X59128571Y-135852380D01*
X59271428Y-135900000D01*
X59319047Y-135947619D01*
X60033333Y-135852380D02*
X60033333Y-136566666D01*
X59985714Y-136709523D01*
X59890476Y-136804761D01*
X59747619Y-136852380D01*
X59652380Y-136852380D01*
X60985714Y-136852380D02*
X60509523Y-136852380D01*
X60509523Y-135852380D01*
X61890476Y-136757142D02*
X61842857Y-136804761D01*
X61700000Y-136852380D01*
X61604761Y-136852380D01*
X61461904Y-136804761D01*
X61366666Y-136709523D01*
X61319047Y-136614285D01*
X61271428Y-136423809D01*
X61271428Y-136280952D01*
X61319047Y-136090476D01*
X61366666Y-135995238D01*
X61461904Y-135900000D01*
X61604761Y-135852380D01*
X61700000Y-135852380D01*
X61842857Y-135900000D01*
X61890476Y-135947619D01*
X62604761Y-135852380D02*
X62604761Y-136566666D01*
X62557142Y-136709523D01*
X62461904Y-136804761D01*
X62319047Y-136852380D01*
X62223809Y-136852380D01*
X63557142Y-136852380D02*
X63080952Y-136852380D01*
X63080952Y-135852380D01*
X64461904Y-136757142D02*
X64414285Y-136804761D01*
X64271428Y-136852380D01*
X64176190Y-136852380D01*
X64033333Y-136804761D01*
X63938095Y-136709523D01*
X63890476Y-136614285D01*
X63842857Y-136423809D01*
X63842857Y-136280952D01*
X63890476Y-136090476D01*
X63938095Y-135995238D01*
X64033333Y-135900000D01*
X64176190Y-135852380D01*
X64271428Y-135852380D01*
X64414285Y-135900000D01*
X64461904Y-135947619D01*
X65176190Y-135852380D02*
X65176190Y-136566666D01*
X65128571Y-136709523D01*
X65033333Y-136804761D01*
X64890476Y-136852380D01*
X64795238Y-136852380D01*
X66128571Y-136852380D02*
X65652380Y-136852380D01*
X65652380Y-135852380D01*
X67033333Y-136757142D02*
X66985714Y-136804761D01*
X66842857Y-136852380D01*
X66747619Y-136852380D01*
X66604761Y-136804761D01*
X66509523Y-136709523D01*
X66461904Y-136614285D01*
X66414285Y-136423809D01*
X66414285Y-136280952D01*
X66461904Y-136090476D01*
X66509523Y-135995238D01*
X66604761Y-135900000D01*
X66747619Y-135852380D01*
X66842857Y-135852380D01*
X66985714Y-135900000D01*
X67033333Y-135947619D01*
D11*
X63109966Y-126369996D02*
G75*
G03*
X63541671Y-128262408I2956034J-321104D01*
G01*
X59709970Y-125370026D02*
G75*
G03*
X62310000Y-126370000I2242330J1950126D01*
G01*
X62010000Y-122870000D02*
G75*
G03*
X59710000Y-125370000I345000J-2625400D01*
G01*
X62310000Y-126370000D02*
G75*
G03*
X65010000Y-125470000I133500J4099500D01*
G01*
X65350000Y-63460000D02*
G75*
G03*
X65350000Y-63460000I-3500000J0D01*
G01*
X65360000Y-111660000D02*
G75*
G03*
X65360000Y-111660000I-3500000J0D01*
G01*
X154550000Y-63460000D02*
G75*
G03*
X154550000Y-63460000I-3500000J0D01*
G01*
X154590000Y-111680000D02*
G75*
G03*
X154590000Y-111680000I-3500000J0D01*
G01*
X60910000Y-128170000D02*
G75*
G03*
X62310000Y-130270000I1539700J-490200D01*
G01*
X62330882Y-130289055D02*
G75*
G03*
X63530883Y-128189076I-62482J1428555D01*
G01*
X60909996Y-128169999D02*
G75*
G03*
X61210000Y-126370000I-6974296J2087399D01*
G01*
X65009942Y-125470004D02*
G75*
G03*
X62010000Y-122870000I-2773042J-168896D01*
G01*
D12*
X153002857Y-90872000D02*
X153602857Y-90872000D01*
X153488571Y-91641428D02*
X153288571Y-91355714D01*
X153145714Y-91641428D02*
X153145714Y-91041428D01*
X153374285Y-91041428D01*
X153431428Y-91070000D01*
X153460000Y-91098571D01*
X153488571Y-91155714D01*
X153488571Y-91241428D01*
X153460000Y-91298571D01*
X153431428Y-91327142D01*
X153374285Y-91355714D01*
X153145714Y-91355714D01*
X153602857Y-90872000D02*
X154145714Y-90872000D01*
X153745714Y-91327142D02*
X153945714Y-91327142D01*
X154031428Y-91641428D02*
X153745714Y-91641428D01*
X153745714Y-91041428D01*
X154031428Y-91041428D01*
X154145714Y-90872000D02*
X154717142Y-90872000D01*
X154260000Y-91612857D02*
X154345714Y-91641428D01*
X154488571Y-91641428D01*
X154545714Y-91612857D01*
X154574285Y-91584285D01*
X154602857Y-91527142D01*
X154602857Y-91470000D01*
X154574285Y-91412857D01*
X154545714Y-91384285D01*
X154488571Y-91355714D01*
X154374285Y-91327142D01*
X154317142Y-91298571D01*
X154288571Y-91270000D01*
X154260000Y-91212857D01*
X154260000Y-91155714D01*
X154288571Y-91098571D01*
X154317142Y-91070000D01*
X154374285Y-91041428D01*
X154517142Y-91041428D01*
X154602857Y-91070000D01*
X154717142Y-90872000D02*
X155260000Y-90872000D01*
X154860000Y-91327142D02*
X155060000Y-91327142D01*
X155145714Y-91641428D02*
X154860000Y-91641428D01*
X154860000Y-91041428D01*
X155145714Y-91041428D01*
X155260000Y-90872000D02*
X155717142Y-90872000D01*
X155317142Y-91041428D02*
X155660000Y-91041428D01*
X155488571Y-91641428D02*
X155488571Y-91041428D01*
D11*
X153698095Y-103670000D02*
X153602857Y-103622380D01*
X153460000Y-103622380D01*
X153317142Y-103670000D01*
X153221904Y-103765238D01*
X153174285Y-103860476D01*
X153126666Y-104050952D01*
X153126666Y-104193809D01*
X153174285Y-104384285D01*
X153221904Y-104479523D01*
X153317142Y-104574761D01*
X153460000Y-104622380D01*
X153555238Y-104622380D01*
X153698095Y-104574761D01*
X153745714Y-104527142D01*
X153745714Y-104193809D01*
X153555238Y-104193809D01*
X154174285Y-104622380D02*
X154174285Y-103622380D01*
X154745714Y-104622380D01*
X154745714Y-103622380D01*
X155221904Y-104622380D02*
X155221904Y-103622380D01*
X155460000Y-103622380D01*
X155602857Y-103670000D01*
X155698095Y-103765238D01*
X155745714Y-103860476D01*
X155793333Y-104050952D01*
X155793333Y-104193809D01*
X155745714Y-104384285D01*
X155698095Y-104479523D01*
X155602857Y-104574761D01*
X155460000Y-104622380D01*
X155221904Y-104622380D01*
X57183809Y-98440000D02*
X58231428Y-98440000D01*
X57612380Y-98722380D02*
X57802857Y-98722380D01*
X57898095Y-98770000D01*
X57993333Y-98865238D01*
X58040952Y-99055714D01*
X58040952Y-99389047D01*
X57993333Y-99579523D01*
X57898095Y-99674761D01*
X57802857Y-99722380D01*
X57612380Y-99722380D01*
X57517142Y-99674761D01*
X57421904Y-99579523D01*
X57374285Y-99389047D01*
X57374285Y-99055714D01*
X57421904Y-98865238D01*
X57517142Y-98770000D01*
X57612380Y-98722380D01*
X58231428Y-98440000D02*
X59136190Y-98440000D01*
X58469523Y-99198571D02*
X58802857Y-99198571D01*
X58945714Y-99722380D02*
X58469523Y-99722380D01*
X58469523Y-98722380D01*
X58945714Y-98722380D01*
X153421904Y-74022380D02*
X153421904Y-73022380D01*
X153660000Y-73022380D01*
X153802857Y-73070000D01*
X153898095Y-73165238D01*
X153945714Y-73260476D01*
X153993333Y-73450952D01*
X153993333Y-73593809D01*
X153945714Y-73784285D01*
X153898095Y-73879523D01*
X153802857Y-73974761D01*
X153660000Y-74022380D01*
X153421904Y-74022380D01*
X154945714Y-74022380D02*
X154374285Y-74022380D01*
X154660000Y-74022380D02*
X154660000Y-73022380D01*
X154564761Y-73165238D01*
X154469523Y-73260476D01*
X154374285Y-73308095D01*
X153764761Y-94427142D02*
X153717142Y-94474761D01*
X153574285Y-94522380D01*
X153479047Y-94522380D01*
X153336190Y-94474761D01*
X153240952Y-94379523D01*
X153193333Y-94284285D01*
X153145714Y-94093809D01*
X153145714Y-93950952D01*
X153193333Y-93760476D01*
X153240952Y-93665238D01*
X153336190Y-93570000D01*
X153479047Y-93522380D01*
X153574285Y-93522380D01*
X153717142Y-93570000D01*
X153764761Y-93617619D01*
X154669523Y-94522380D02*
X154193333Y-94522380D01*
X154193333Y-93522380D01*
X155002857Y-94522380D02*
X155002857Y-93522380D01*
X155574285Y-94522380D02*
X155145714Y-93950952D01*
X155574285Y-93522380D02*
X155002857Y-94093809D01*
X153421904Y-79222380D02*
X153421904Y-78222380D01*
X153660000Y-78222380D01*
X153802857Y-78270000D01*
X153898095Y-78365238D01*
X153945714Y-78460476D01*
X153993333Y-78650952D01*
X153993333Y-78793809D01*
X153945714Y-78984285D01*
X153898095Y-79079523D01*
X153802857Y-79174761D01*
X153660000Y-79222380D01*
X153421904Y-79222380D01*
X154326666Y-78222380D02*
X154945714Y-78222380D01*
X154612380Y-78603333D01*
X154755238Y-78603333D01*
X154850476Y-78650952D01*
X154898095Y-78698571D01*
X154945714Y-78793809D01*
X154945714Y-79031904D01*
X154898095Y-79127142D01*
X154850476Y-79174761D01*
X154755238Y-79222380D01*
X154469523Y-79222380D01*
X154374285Y-79174761D01*
X154326666Y-79127142D01*
X57631428Y-74022380D02*
X57631428Y-73022380D01*
X57869523Y-73022380D01*
X58012380Y-73070000D01*
X58107619Y-73165238D01*
X58155238Y-73260476D01*
X58202857Y-73450952D01*
X58202857Y-73593809D01*
X58155238Y-73784285D01*
X58107619Y-73879523D01*
X58012380Y-73974761D01*
X57869523Y-74022380D01*
X57631428Y-74022380D01*
X59155238Y-74022380D02*
X58583809Y-74022380D01*
X58869523Y-74022380D02*
X58869523Y-73022380D01*
X58774285Y-73165238D01*
X58679047Y-73260476D01*
X58583809Y-73308095D01*
X59440952Y-72974761D02*
X59583809Y-73117619D01*
D13*
X57483809Y-96931904D02*
X57217142Y-96550952D01*
X57026666Y-96931904D02*
X57026666Y-96131904D01*
X57331428Y-96131904D01*
X57407619Y-96170000D01*
X57445714Y-96208095D01*
X57483809Y-96284285D01*
X57483809Y-96398571D01*
X57445714Y-96474761D01*
X57407619Y-96512857D01*
X57331428Y-96550952D01*
X57026666Y-96550952D01*
X58283809Y-96855714D02*
X58245714Y-96893809D01*
X58131428Y-96931904D01*
X58055238Y-96931904D01*
X57940952Y-96893809D01*
X57864761Y-96817619D01*
X57826666Y-96741428D01*
X57788571Y-96589047D01*
X57788571Y-96474761D01*
X57826666Y-96322380D01*
X57864761Y-96246190D01*
X57940952Y-96170000D01*
X58055238Y-96131904D01*
X58131428Y-96131904D01*
X58245714Y-96170000D01*
X58283809Y-96208095D01*
X59007619Y-96931904D02*
X58626666Y-96931904D01*
X58626666Y-96131904D01*
X59274285Y-96931904D02*
X59274285Y-96131904D01*
X59731428Y-96931904D02*
X59388571Y-96474761D01*
X59731428Y-96131904D02*
X59274285Y-96589047D01*
D10*
X146590952Y-44417380D02*
X146114761Y-44417380D01*
X146114761Y-43417380D01*
X146924285Y-43893571D02*
X147257619Y-43893571D01*
X147400476Y-44417380D02*
X146924285Y-44417380D01*
X146924285Y-43417380D01*
X147400476Y-43417380D01*
X147829047Y-44417380D02*
X147829047Y-43417380D01*
X148067142Y-43417380D01*
X148210000Y-43465000D01*
X148305238Y-43560238D01*
X148352857Y-43655476D01*
X148400476Y-43845952D01*
X148400476Y-43988809D01*
X148352857Y-44179285D01*
X148305238Y-44274523D01*
X148210000Y-44369761D01*
X148067142Y-44417380D01*
X147829047Y-44417380D01*
X149590952Y-44417380D02*
X149590952Y-43417380D01*
X149924285Y-44131666D01*
X150257619Y-43417380D01*
X150257619Y-44417380D01*
X150686190Y-44131666D02*
X151162380Y-44131666D01*
X150590952Y-44417380D02*
X150924285Y-43417380D01*
X151257619Y-44417380D01*
X151448095Y-43417380D02*
X152019523Y-43417380D01*
X151733809Y-44417380D02*
X151733809Y-43417380D01*
X152924285Y-44417380D02*
X152590952Y-43941190D01*
X152352857Y-44417380D02*
X152352857Y-43417380D01*
X152733809Y-43417380D01*
X152829047Y-43465000D01*
X152876666Y-43512619D01*
X152924285Y-43607857D01*
X152924285Y-43750714D01*
X152876666Y-43845952D01*
X152829047Y-43893571D01*
X152733809Y-43941190D01*
X152352857Y-43941190D01*
X153352857Y-44417380D02*
X153352857Y-43417380D01*
X153733809Y-43417380D02*
X154400476Y-44417380D01*
X154400476Y-43417380D02*
X153733809Y-44417380D01*
X149233809Y-45455952D02*
X149138571Y-45408333D01*
X149090952Y-45360714D01*
X149043333Y-45265476D01*
X149043333Y-45217857D01*
X149090952Y-45122619D01*
X149138571Y-45075000D01*
X149233809Y-45027380D01*
X149424285Y-45027380D01*
X149519523Y-45075000D01*
X149567142Y-45122619D01*
X149614761Y-45217857D01*
X149614761Y-45265476D01*
X149567142Y-45360714D01*
X149519523Y-45408333D01*
X149424285Y-45455952D01*
X149233809Y-45455952D01*
X149138571Y-45503571D01*
X149090952Y-45551190D01*
X149043333Y-45646428D01*
X149043333Y-45836904D01*
X149090952Y-45932142D01*
X149138571Y-45979761D01*
X149233809Y-46027380D01*
X149424285Y-46027380D01*
X149519523Y-45979761D01*
X149567142Y-45932142D01*
X149614761Y-45836904D01*
X149614761Y-45646428D01*
X149567142Y-45551190D01*
X149519523Y-45503571D01*
X149424285Y-45455952D01*
X149948095Y-46027380D02*
X150471904Y-45360714D01*
X149948095Y-45360714D02*
X150471904Y-46027380D01*
X150995714Y-45455952D02*
X150900476Y-45408333D01*
X150852857Y-45360714D01*
X150805238Y-45265476D01*
X150805238Y-45217857D01*
X150852857Y-45122619D01*
X150900476Y-45075000D01*
X150995714Y-45027380D01*
X151186190Y-45027380D01*
X151281428Y-45075000D01*
X151329047Y-45122619D01*
X151376666Y-45217857D01*
X151376666Y-45265476D01*
X151329047Y-45360714D01*
X151281428Y-45408333D01*
X151186190Y-45455952D01*
X150995714Y-45455952D01*
X150900476Y-45503571D01*
X150852857Y-45551190D01*
X150805238Y-45646428D01*
X150805238Y-45836904D01*
X150852857Y-45932142D01*
X150900476Y-45979761D01*
X150995714Y-46027380D01*
X151186190Y-46027380D01*
X151281428Y-45979761D01*
X151329047Y-45932142D01*
X151376666Y-45836904D01*
X151376666Y-45646428D01*
X151329047Y-45551190D01*
X151281428Y-45503571D01*
X151186190Y-45455952D01*
X58866666Y-131747380D02*
X59438095Y-131747380D01*
X59152380Y-132747380D02*
X59152380Y-131747380D01*
X59914285Y-132747380D02*
X59819047Y-132699761D01*
X59771428Y-132652142D01*
X59723809Y-132556904D01*
X59723809Y-132271190D01*
X59771428Y-132175952D01*
X59819047Y-132128333D01*
X59914285Y-132080714D01*
X60057142Y-132080714D01*
X60152380Y-132128333D01*
X60200000Y-132175952D01*
X60247619Y-132271190D01*
X60247619Y-132556904D01*
X60200000Y-132652142D01*
X60152380Y-132699761D01*
X60057142Y-132747380D01*
X59914285Y-132747380D01*
X60676190Y-132080714D02*
X60676190Y-132747380D01*
X60676190Y-132175952D02*
X60723809Y-132128333D01*
X60819047Y-132080714D01*
X60961904Y-132080714D01*
X61057142Y-132128333D01*
X61104761Y-132223571D01*
X61104761Y-132747380D01*
X61580952Y-132747380D02*
X61580952Y-132080714D01*
X61580952Y-131747380D02*
X61533333Y-131795000D01*
X61580952Y-131842619D01*
X61628571Y-131795000D01*
X61580952Y-131747380D01*
X61580952Y-131842619D01*
X62057142Y-132747380D02*
X62057142Y-131747380D01*
X62152380Y-132366428D02*
X62438095Y-132747380D01*
X62438095Y-132080714D02*
X62057142Y-132461666D01*
X62866666Y-132747380D02*
X62866666Y-132080714D01*
X62866666Y-131747380D02*
X62819047Y-131795000D01*
X62866666Y-131842619D01*
X62914285Y-131795000D01*
X62866666Y-131747380D01*
X62866666Y-131842619D01*
X63485714Y-132747380D02*
X63390476Y-132699761D01*
X63342857Y-132604523D01*
X63342857Y-131747380D01*
X64009523Y-132747380D02*
X63914285Y-132699761D01*
X63866666Y-132604523D01*
X63866666Y-131747380D01*
X64771428Y-132699761D02*
X64676190Y-132747380D01*
X64485714Y-132747380D01*
X64390476Y-132699761D01*
X64342857Y-132604523D01*
X64342857Y-132223571D01*
X64390476Y-132128333D01*
X64485714Y-132080714D01*
X64676190Y-132080714D01*
X64771428Y-132128333D01*
X64819047Y-132223571D01*
X64819047Y-132318809D01*
X64342857Y-132414047D01*
X65247619Y-132747380D02*
X65247619Y-132080714D01*
X65247619Y-132271190D02*
X65295238Y-132175952D01*
X65342857Y-132128333D01*
X65438095Y-132080714D01*
X65533333Y-132080714D01*
X60580952Y-134357380D02*
X60009523Y-134357380D01*
X60295238Y-134357380D02*
X60295238Y-133357380D01*
X60200000Y-133500238D01*
X60104761Y-133595476D01*
X60009523Y-133643095D01*
X61200000Y-133357380D02*
X61295238Y-133357380D01*
X61390476Y-133405000D01*
X61438095Y-133452619D01*
X61485714Y-133547857D01*
X61533333Y-133738333D01*
X61533333Y-133976428D01*
X61485714Y-134166904D01*
X61438095Y-134262142D01*
X61390476Y-134309761D01*
X61295238Y-134357380D01*
X61200000Y-134357380D01*
X61104761Y-134309761D01*
X61057142Y-134262142D01*
X61009523Y-134166904D01*
X60961904Y-133976428D01*
X60961904Y-133738333D01*
X61009523Y-133547857D01*
X61057142Y-133452619D01*
X61104761Y-133405000D01*
X61200000Y-133357380D01*
X62152380Y-133357380D02*
X62247619Y-133357380D01*
X62342857Y-133405000D01*
X62390476Y-133452619D01*
X62438095Y-133547857D01*
X62485714Y-133738333D01*
X62485714Y-133976428D01*
X62438095Y-134166904D01*
X62390476Y-134262142D01*
X62342857Y-134309761D01*
X62247619Y-134357380D01*
X62152380Y-134357380D01*
X62057142Y-134309761D01*
X62009523Y-134262142D01*
X61961904Y-134166904D01*
X61914285Y-133976428D01*
X61914285Y-133738333D01*
X61961904Y-133547857D01*
X62009523Y-133452619D01*
X62057142Y-133405000D01*
X62152380Y-133357380D01*
X63104761Y-133357380D02*
X63200000Y-133357380D01*
X63295238Y-133405000D01*
X63342857Y-133452619D01*
X63390476Y-133547857D01*
X63438095Y-133738333D01*
X63438095Y-133976428D01*
X63390476Y-134166904D01*
X63342857Y-134262142D01*
X63295238Y-134309761D01*
X63200000Y-134357380D01*
X63104761Y-134357380D01*
X63009523Y-134309761D01*
X62961904Y-134262142D01*
X62914285Y-134166904D01*
X62866666Y-133976428D01*
X62866666Y-133738333D01*
X62914285Y-133547857D01*
X62961904Y-133452619D01*
X63009523Y-133405000D01*
X63104761Y-133357380D01*
X64057142Y-133357380D02*
X64152380Y-133357380D01*
X64247619Y-133405000D01*
X64295238Y-133452619D01*
X64342857Y-133547857D01*
X64390476Y-133738333D01*
X64390476Y-133976428D01*
X64342857Y-134166904D01*
X64295238Y-134262142D01*
X64247619Y-134309761D01*
X64152380Y-134357380D01*
X64057142Y-134357380D01*
X63961904Y-134309761D01*
X63914285Y-134262142D01*
X63866666Y-134166904D01*
X63819047Y-133976428D01*
X63819047Y-133738333D01*
X63866666Y-133547857D01*
X63914285Y-133452619D01*
X63961904Y-133405000D01*
X64057142Y-133357380D01*
D11*
X57498095Y-103670000D02*
X57402857Y-103622380D01*
X57260000Y-103622380D01*
X57117142Y-103670000D01*
X57021904Y-103765238D01*
X56974285Y-103860476D01*
X56926666Y-104050952D01*
X56926666Y-104193809D01*
X56974285Y-104384285D01*
X57021904Y-104479523D01*
X57117142Y-104574761D01*
X57260000Y-104622380D01*
X57355238Y-104622380D01*
X57498095Y-104574761D01*
X57545714Y-104527142D01*
X57545714Y-104193809D01*
X57355238Y-104193809D01*
X57974285Y-104622380D02*
X57974285Y-103622380D01*
X58545714Y-104622380D01*
X58545714Y-103622380D01*
X59021904Y-104622380D02*
X59021904Y-103622380D01*
X59260000Y-103622380D01*
X59402857Y-103670000D01*
X59498095Y-103765238D01*
X59545714Y-103860476D01*
X59593333Y-104050952D01*
X59593333Y-104193809D01*
X59545714Y-104384285D01*
X59498095Y-104479523D01*
X59402857Y-104574761D01*
X59260000Y-104622380D01*
X59021904Y-104622380D01*
X153126666Y-101022380D02*
X153460000Y-102022380D01*
X153793333Y-101022380D01*
X154698095Y-101927142D02*
X154650476Y-101974761D01*
X154507619Y-102022380D01*
X154412380Y-102022380D01*
X154269523Y-101974761D01*
X154174285Y-101879523D01*
X154126666Y-101784285D01*
X154079047Y-101593809D01*
X154079047Y-101450952D01*
X154126666Y-101260476D01*
X154174285Y-101165238D01*
X154269523Y-101070000D01*
X154412380Y-101022380D01*
X154507619Y-101022380D01*
X154650476Y-101070000D01*
X154698095Y-101117619D01*
X155698095Y-101927142D02*
X155650476Y-101974761D01*
X155507619Y-102022380D01*
X155412380Y-102022380D01*
X155269523Y-101974761D01*
X155174285Y-101879523D01*
X155126666Y-101784285D01*
X155079047Y-101593809D01*
X155079047Y-101450952D01*
X155126666Y-101260476D01*
X155174285Y-101165238D01*
X155269523Y-101070000D01*
X155412380Y-101022380D01*
X155507619Y-101022380D01*
X155650476Y-101070000D01*
X155698095Y-101117619D01*
X57631428Y-71522380D02*
X57631428Y-70522380D01*
X57869523Y-70522380D01*
X58012380Y-70570000D01*
X58107619Y-70665238D01*
X58155238Y-70760476D01*
X58202857Y-70950952D01*
X58202857Y-71093809D01*
X58155238Y-71284285D01*
X58107619Y-71379523D01*
X58012380Y-71474761D01*
X57869523Y-71522380D01*
X57631428Y-71522380D01*
X58821904Y-70522380D02*
X58917142Y-70522380D01*
X59012380Y-70570000D01*
X59060000Y-70617619D01*
X59107619Y-70712857D01*
X59155238Y-70903333D01*
X59155238Y-71141428D01*
X59107619Y-71331904D01*
X59060000Y-71427142D01*
X59012380Y-71474761D01*
X58917142Y-71522380D01*
X58821904Y-71522380D01*
X58726666Y-71474761D01*
X58679047Y-71427142D01*
X58631428Y-71331904D01*
X58583809Y-71141428D01*
X58583809Y-70903333D01*
X58631428Y-70712857D01*
X58679047Y-70617619D01*
X58726666Y-70570000D01*
X58821904Y-70522380D01*
X59440952Y-70474761D02*
X59583809Y-70617619D01*
X57764761Y-94527142D02*
X57717142Y-94574761D01*
X57574285Y-94622380D01*
X57479047Y-94622380D01*
X57336190Y-94574761D01*
X57240952Y-94479523D01*
X57193333Y-94384285D01*
X57145714Y-94193809D01*
X57145714Y-94050952D01*
X57193333Y-93860476D01*
X57240952Y-93765238D01*
X57336190Y-93670000D01*
X57479047Y-93622380D01*
X57574285Y-93622380D01*
X57717142Y-93670000D01*
X57764761Y-93717619D01*
X58669523Y-94622380D02*
X58193333Y-94622380D01*
X58193333Y-93622380D01*
X59002857Y-94622380D02*
X59002857Y-93622380D01*
X59574285Y-94622380D02*
X59145714Y-94050952D01*
X59574285Y-93622380D02*
X59002857Y-94193809D01*
D10*
X145295714Y-49872380D02*
X144724285Y-49872380D01*
X145010000Y-49872380D02*
X145010000Y-48872380D01*
X144914761Y-49015238D01*
X144819523Y-49110476D01*
X144724285Y-49158095D01*
D11*
X57631428Y-86822380D02*
X57631428Y-85822380D01*
X57869523Y-85822380D01*
X58012380Y-85870000D01*
X58107619Y-85965238D01*
X58155238Y-86060476D01*
X58202857Y-86250952D01*
X58202857Y-86393809D01*
X58155238Y-86584285D01*
X58107619Y-86679523D01*
X58012380Y-86774761D01*
X57869523Y-86822380D01*
X57631428Y-86822380D01*
X59060000Y-85822380D02*
X58869523Y-85822380D01*
X58774285Y-85870000D01*
X58726666Y-85917619D01*
X58631428Y-86060476D01*
X58583809Y-86250952D01*
X58583809Y-86631904D01*
X58631428Y-86727142D01*
X58679047Y-86774761D01*
X58774285Y-86822380D01*
X58964761Y-86822380D01*
X59060000Y-86774761D01*
X59107619Y-86727142D01*
X59155238Y-86631904D01*
X59155238Y-86393809D01*
X59107619Y-86298571D01*
X59060000Y-86250952D01*
X58964761Y-86203333D01*
X58774285Y-86203333D01*
X58679047Y-86250952D01*
X58631428Y-86298571D01*
X58583809Y-86393809D01*
X59440952Y-85774761D02*
X59583809Y-85917619D01*
X153421904Y-89417380D02*
X153421904Y-88417380D01*
X153660000Y-88417380D01*
X153802857Y-88465000D01*
X153898095Y-88560238D01*
X153945714Y-88655476D01*
X153993333Y-88845952D01*
X153993333Y-88988809D01*
X153945714Y-89179285D01*
X153898095Y-89274523D01*
X153802857Y-89369761D01*
X153660000Y-89417380D01*
X153421904Y-89417380D01*
X154326666Y-88417380D02*
X154993333Y-88417380D01*
X154564761Y-89417380D01*
X153421904Y-81722380D02*
X153421904Y-80722380D01*
X153660000Y-80722380D01*
X153802857Y-80770000D01*
X153898095Y-80865238D01*
X153945714Y-80960476D01*
X153993333Y-81150952D01*
X153993333Y-81293809D01*
X153945714Y-81484285D01*
X153898095Y-81579523D01*
X153802857Y-81674761D01*
X153660000Y-81722380D01*
X153421904Y-81722380D01*
X154850476Y-81055714D02*
X154850476Y-81722380D01*
X154612380Y-80674761D02*
X154374285Y-81389047D01*
X154993333Y-81389047D01*
X57631428Y-81722380D02*
X57631428Y-80722380D01*
X57869523Y-80722380D01*
X58012380Y-80770000D01*
X58107619Y-80865238D01*
X58155238Y-80960476D01*
X58202857Y-81150952D01*
X58202857Y-81293809D01*
X58155238Y-81484285D01*
X58107619Y-81579523D01*
X58012380Y-81674761D01*
X57869523Y-81722380D01*
X57631428Y-81722380D01*
X59060000Y-81055714D02*
X59060000Y-81722380D01*
X58821904Y-80674761D02*
X58583809Y-81389047D01*
X59202857Y-81389047D01*
X59440952Y-80674761D02*
X59583809Y-80817619D01*
X56926666Y-101022380D02*
X57260000Y-102022380D01*
X57593333Y-101022380D01*
X58498095Y-101927142D02*
X58450476Y-101974761D01*
X58307619Y-102022380D01*
X58212380Y-102022380D01*
X58069523Y-101974761D01*
X57974285Y-101879523D01*
X57926666Y-101784285D01*
X57879047Y-101593809D01*
X57879047Y-101450952D01*
X57926666Y-101260476D01*
X57974285Y-101165238D01*
X58069523Y-101070000D01*
X58212380Y-101022380D01*
X58307619Y-101022380D01*
X58450476Y-101070000D01*
X58498095Y-101117619D01*
X59498095Y-101927142D02*
X59450476Y-101974761D01*
X59307619Y-102022380D01*
X59212380Y-102022380D01*
X59069523Y-101974761D01*
X58974285Y-101879523D01*
X58926666Y-101784285D01*
X58879047Y-101593809D01*
X58879047Y-101450952D01*
X58926666Y-101260476D01*
X58974285Y-101165238D01*
X59069523Y-101070000D01*
X59212380Y-101022380D01*
X59307619Y-101022380D01*
X59450476Y-101070000D01*
X59498095Y-101117619D01*
X153421904Y-84222380D02*
X153421904Y-83222380D01*
X153660000Y-83222380D01*
X153802857Y-83270000D01*
X153898095Y-83365238D01*
X153945714Y-83460476D01*
X153993333Y-83650952D01*
X153993333Y-83793809D01*
X153945714Y-83984285D01*
X153898095Y-84079523D01*
X153802857Y-84174761D01*
X153660000Y-84222380D01*
X153421904Y-84222380D01*
X154898095Y-83222380D02*
X154421904Y-83222380D01*
X154374285Y-83698571D01*
X154421904Y-83650952D01*
X154517142Y-83603333D01*
X154755238Y-83603333D01*
X154850476Y-83650952D01*
X154898095Y-83698571D01*
X154945714Y-83793809D01*
X154945714Y-84031904D01*
X154898095Y-84127142D01*
X154850476Y-84174761D01*
X154755238Y-84222380D01*
X154517142Y-84222380D01*
X154421904Y-84174761D01*
X154374285Y-84127142D01*
X57631428Y-84222380D02*
X57631428Y-83222380D01*
X57869523Y-83222380D01*
X58012380Y-83270000D01*
X58107619Y-83365238D01*
X58155238Y-83460476D01*
X58202857Y-83650952D01*
X58202857Y-83793809D01*
X58155238Y-83984285D01*
X58107619Y-84079523D01*
X58012380Y-84174761D01*
X57869523Y-84222380D01*
X57631428Y-84222380D01*
X59107619Y-83222380D02*
X58631428Y-83222380D01*
X58583809Y-83698571D01*
X58631428Y-83650952D01*
X58726666Y-83603333D01*
X58964761Y-83603333D01*
X59060000Y-83650952D01*
X59107619Y-83698571D01*
X59155238Y-83793809D01*
X59155238Y-84031904D01*
X59107619Y-84127142D01*
X59060000Y-84174761D01*
X58964761Y-84222380D01*
X58726666Y-84222380D01*
X58631428Y-84174761D01*
X58583809Y-84127142D01*
X59440952Y-83174761D02*
X59583809Y-83317619D01*
X57631428Y-76622380D02*
X57631428Y-75622380D01*
X57869523Y-75622380D01*
X58012380Y-75670000D01*
X58107619Y-75765238D01*
X58155238Y-75860476D01*
X58202857Y-76050952D01*
X58202857Y-76193809D01*
X58155238Y-76384285D01*
X58107619Y-76479523D01*
X58012380Y-76574761D01*
X57869523Y-76622380D01*
X57631428Y-76622380D01*
X58583809Y-75717619D02*
X58631428Y-75670000D01*
X58726666Y-75622380D01*
X58964761Y-75622380D01*
X59060000Y-75670000D01*
X59107619Y-75717619D01*
X59155238Y-75812857D01*
X59155238Y-75908095D01*
X59107619Y-76050952D01*
X58536190Y-76622380D01*
X59155238Y-76622380D01*
X59440952Y-75574761D02*
X59583809Y-75717619D01*
D12*
X57002857Y-90972000D02*
X57602857Y-90972000D01*
X57488571Y-91741428D02*
X57288571Y-91455714D01*
X57145714Y-91741428D02*
X57145714Y-91141428D01*
X57374285Y-91141428D01*
X57431428Y-91170000D01*
X57460000Y-91198571D01*
X57488571Y-91255714D01*
X57488571Y-91341428D01*
X57460000Y-91398571D01*
X57431428Y-91427142D01*
X57374285Y-91455714D01*
X57145714Y-91455714D01*
X57602857Y-90972000D02*
X58145714Y-90972000D01*
X57745714Y-91427142D02*
X57945714Y-91427142D01*
X58031428Y-91741428D02*
X57745714Y-91741428D01*
X57745714Y-91141428D01*
X58031428Y-91141428D01*
X58145714Y-90972000D02*
X58717142Y-90972000D01*
X58260000Y-91712857D02*
X58345714Y-91741428D01*
X58488571Y-91741428D01*
X58545714Y-91712857D01*
X58574285Y-91684285D01*
X58602857Y-91627142D01*
X58602857Y-91570000D01*
X58574285Y-91512857D01*
X58545714Y-91484285D01*
X58488571Y-91455714D01*
X58374285Y-91427142D01*
X58317142Y-91398571D01*
X58288571Y-91370000D01*
X58260000Y-91312857D01*
X58260000Y-91255714D01*
X58288571Y-91198571D01*
X58317142Y-91170000D01*
X58374285Y-91141428D01*
X58517142Y-91141428D01*
X58602857Y-91170000D01*
X58717142Y-90972000D02*
X59260000Y-90972000D01*
X58860000Y-91427142D02*
X59060000Y-91427142D01*
X59145714Y-91741428D02*
X58860000Y-91741428D01*
X58860000Y-91141428D01*
X59145714Y-91141428D01*
X59260000Y-90972000D02*
X59717142Y-90972000D01*
X59317142Y-91141428D02*
X59660000Y-91141428D01*
X59488571Y-91741428D02*
X59488571Y-91141428D01*
D11*
X153421904Y-86822380D02*
X153421904Y-85822380D01*
X153660000Y-85822380D01*
X153802857Y-85870000D01*
X153898095Y-85965238D01*
X153945714Y-86060476D01*
X153993333Y-86250952D01*
X153993333Y-86393809D01*
X153945714Y-86584285D01*
X153898095Y-86679523D01*
X153802857Y-86774761D01*
X153660000Y-86822380D01*
X153421904Y-86822380D01*
X154850476Y-85822380D02*
X154660000Y-85822380D01*
X154564761Y-85870000D01*
X154517142Y-85917619D01*
X154421904Y-86060476D01*
X154374285Y-86250952D01*
X154374285Y-86631904D01*
X154421904Y-86727142D01*
X154469523Y-86774761D01*
X154564761Y-86822380D01*
X154755238Y-86822380D01*
X154850476Y-86774761D01*
X154898095Y-86727142D01*
X154945714Y-86631904D01*
X154945714Y-86393809D01*
X154898095Y-86298571D01*
X154850476Y-86250952D01*
X154755238Y-86203333D01*
X154564761Y-86203333D01*
X154469523Y-86250952D01*
X154421904Y-86298571D01*
X154374285Y-86393809D01*
X153483809Y-98340000D02*
X154531428Y-98340000D01*
X153912380Y-98622380D02*
X154102857Y-98622380D01*
X154198095Y-98670000D01*
X154293333Y-98765238D01*
X154340952Y-98955714D01*
X154340952Y-99289047D01*
X154293333Y-99479523D01*
X154198095Y-99574761D01*
X154102857Y-99622380D01*
X153912380Y-99622380D01*
X153817142Y-99574761D01*
X153721904Y-99479523D01*
X153674285Y-99289047D01*
X153674285Y-98955714D01*
X153721904Y-98765238D01*
X153817142Y-98670000D01*
X153912380Y-98622380D01*
X154531428Y-98340000D02*
X155436190Y-98340000D01*
X154769523Y-99098571D02*
X155102857Y-99098571D01*
X155245714Y-99622380D02*
X154769523Y-99622380D01*
X154769523Y-98622380D01*
X155245714Y-98622380D01*
X153421904Y-76622380D02*
X153421904Y-75622380D01*
X153660000Y-75622380D01*
X153802857Y-75670000D01*
X153898095Y-75765238D01*
X153945714Y-75860476D01*
X153993333Y-76050952D01*
X153993333Y-76193809D01*
X153945714Y-76384285D01*
X153898095Y-76479523D01*
X153802857Y-76574761D01*
X153660000Y-76622380D01*
X153421904Y-76622380D01*
X154374285Y-75717619D02*
X154421904Y-75670000D01*
X154517142Y-75622380D01*
X154755238Y-75622380D01*
X154850476Y-75670000D01*
X154898095Y-75717619D01*
X154945714Y-75812857D01*
X154945714Y-75908095D01*
X154898095Y-76050952D01*
X154326666Y-76622380D01*
X154945714Y-76622380D01*
X57631428Y-89417380D02*
X57631428Y-88417380D01*
X57869523Y-88417380D01*
X58012380Y-88465000D01*
X58107619Y-88560238D01*
X58155238Y-88655476D01*
X58202857Y-88845952D01*
X58202857Y-88988809D01*
X58155238Y-89179285D01*
X58107619Y-89274523D01*
X58012380Y-89369761D01*
X57869523Y-89417380D01*
X57631428Y-89417380D01*
X58536190Y-88417380D02*
X59202857Y-88417380D01*
X58774285Y-89417380D01*
X59440952Y-88369761D02*
X59583809Y-88512619D01*
X153421904Y-71522380D02*
X153421904Y-70522380D01*
X153660000Y-70522380D01*
X153802857Y-70570000D01*
X153898095Y-70665238D01*
X153945714Y-70760476D01*
X153993333Y-70950952D01*
X153993333Y-71093809D01*
X153945714Y-71284285D01*
X153898095Y-71379523D01*
X153802857Y-71474761D01*
X153660000Y-71522380D01*
X153421904Y-71522380D01*
X154612380Y-70522380D02*
X154707619Y-70522380D01*
X154802857Y-70570000D01*
X154850476Y-70617619D01*
X154898095Y-70712857D01*
X154945714Y-70903333D01*
X154945714Y-71141428D01*
X154898095Y-71331904D01*
X154850476Y-71427142D01*
X154802857Y-71474761D01*
X154707619Y-71522380D01*
X154612380Y-71522380D01*
X154517142Y-71474761D01*
X154469523Y-71427142D01*
X154421904Y-71331904D01*
X154374285Y-71141428D01*
X154374285Y-70903333D01*
X154421904Y-70712857D01*
X154469523Y-70617619D01*
X154517142Y-70570000D01*
X154612380Y-70522380D01*
D13*
X153583809Y-96831904D02*
X153317142Y-96450952D01*
X153126666Y-96831904D02*
X153126666Y-96031904D01*
X153431428Y-96031904D01*
X153507619Y-96070000D01*
X153545714Y-96108095D01*
X153583809Y-96184285D01*
X153583809Y-96298571D01*
X153545714Y-96374761D01*
X153507619Y-96412857D01*
X153431428Y-96450952D01*
X153126666Y-96450952D01*
X154383809Y-96755714D02*
X154345714Y-96793809D01*
X154231428Y-96831904D01*
X154155238Y-96831904D01*
X154040952Y-96793809D01*
X153964761Y-96717619D01*
X153926666Y-96641428D01*
X153888571Y-96489047D01*
X153888571Y-96374761D01*
X153926666Y-96222380D01*
X153964761Y-96146190D01*
X154040952Y-96070000D01*
X154155238Y-96031904D01*
X154231428Y-96031904D01*
X154345714Y-96070000D01*
X154383809Y-96108095D01*
X155107619Y-96831904D02*
X154726666Y-96831904D01*
X154726666Y-96031904D01*
X155374285Y-96831904D02*
X155374285Y-96031904D01*
X155831428Y-96831904D02*
X155488571Y-96374761D01*
X155831428Y-96031904D02*
X155374285Y-96489047D01*
D11*
X57631428Y-79222380D02*
X57631428Y-78222380D01*
X57869523Y-78222380D01*
X58012380Y-78270000D01*
X58107619Y-78365238D01*
X58155238Y-78460476D01*
X58202857Y-78650952D01*
X58202857Y-78793809D01*
X58155238Y-78984285D01*
X58107619Y-79079523D01*
X58012380Y-79174761D01*
X57869523Y-79222380D01*
X57631428Y-79222380D01*
X58536190Y-78222380D02*
X59155238Y-78222380D01*
X58821904Y-78603333D01*
X58964761Y-78603333D01*
X59060000Y-78650952D01*
X59107619Y-78698571D01*
X59155238Y-78793809D01*
X59155238Y-79031904D01*
X59107619Y-79127142D01*
X59060000Y-79174761D01*
X58964761Y-79222380D01*
X58679047Y-79222380D01*
X58583809Y-79174761D01*
X58536190Y-79127142D01*
X59440952Y-78174761D02*
X59583809Y-78317619D01*
D10*
%TO.C,74LS595*%
X109680952Y-44022380D02*
X110347619Y-44022380D01*
X109919047Y-45022380D01*
X111157142Y-44355714D02*
X111157142Y-45022380D01*
X110919047Y-43974761D02*
X110680952Y-44689047D01*
X111300000Y-44689047D01*
X112157142Y-45022380D02*
X111680952Y-45022380D01*
X111680952Y-44022380D01*
X112442857Y-44974761D02*
X112585714Y-45022380D01*
X112823809Y-45022380D01*
X112919047Y-44974761D01*
X112966666Y-44927142D01*
X113014285Y-44831904D01*
X113014285Y-44736666D01*
X112966666Y-44641428D01*
X112919047Y-44593809D01*
X112823809Y-44546190D01*
X112633333Y-44498571D01*
X112538095Y-44450952D01*
X112490476Y-44403333D01*
X112442857Y-44308095D01*
X112442857Y-44212857D01*
X112490476Y-44117619D01*
X112538095Y-44070000D01*
X112633333Y-44022380D01*
X112871428Y-44022380D01*
X113014285Y-44070000D01*
X113919047Y-44022380D02*
X113442857Y-44022380D01*
X113395238Y-44498571D01*
X113442857Y-44450952D01*
X113538095Y-44403333D01*
X113776190Y-44403333D01*
X113871428Y-44450952D01*
X113919047Y-44498571D01*
X113966666Y-44593809D01*
X113966666Y-44831904D01*
X113919047Y-44927142D01*
X113871428Y-44974761D01*
X113776190Y-45022380D01*
X113538095Y-45022380D01*
X113442857Y-44974761D01*
X113395238Y-44927142D01*
X114442857Y-45022380D02*
X114633333Y-45022380D01*
X114728571Y-44974761D01*
X114776190Y-44927142D01*
X114871428Y-44784285D01*
X114919047Y-44593809D01*
X114919047Y-44212857D01*
X114871428Y-44117619D01*
X114823809Y-44070000D01*
X114728571Y-44022380D01*
X114538095Y-44022380D01*
X114442857Y-44070000D01*
X114395238Y-44117619D01*
X114347619Y-44212857D01*
X114347619Y-44450952D01*
X114395238Y-44546190D01*
X114442857Y-44593809D01*
X114538095Y-44641428D01*
X114728571Y-44641428D01*
X114823809Y-44593809D01*
X114871428Y-44546190D01*
X114919047Y-44450952D01*
X115823809Y-44022380D02*
X115347619Y-44022380D01*
X115300000Y-44498571D01*
X115347619Y-44450952D01*
X115442857Y-44403333D01*
X115680952Y-44403333D01*
X115776190Y-44450952D01*
X115823809Y-44498571D01*
X115871428Y-44593809D01*
X115871428Y-44831904D01*
X115823809Y-44927142D01*
X115776190Y-44974761D01*
X115680952Y-45022380D01*
X115442857Y-45022380D01*
X115347619Y-44974761D01*
X115300000Y-44927142D01*
X119250952Y-129442380D02*
X119917619Y-129442380D01*
X119489047Y-130442380D01*
X120727142Y-129775714D02*
X120727142Y-130442380D01*
X120489047Y-129394761D02*
X120250952Y-130109047D01*
X120870000Y-130109047D01*
X121727142Y-130442380D02*
X121250952Y-130442380D01*
X121250952Y-129442380D01*
X122012857Y-130394761D02*
X122155714Y-130442380D01*
X122393809Y-130442380D01*
X122489047Y-130394761D01*
X122536666Y-130347142D01*
X122584285Y-130251904D01*
X122584285Y-130156666D01*
X122536666Y-130061428D01*
X122489047Y-130013809D01*
X122393809Y-129966190D01*
X122203333Y-129918571D01*
X122108095Y-129870952D01*
X122060476Y-129823333D01*
X122012857Y-129728095D01*
X122012857Y-129632857D01*
X122060476Y-129537619D01*
X122108095Y-129490000D01*
X122203333Y-129442380D01*
X122441428Y-129442380D01*
X122584285Y-129490000D01*
X123489047Y-129442380D02*
X123012857Y-129442380D01*
X122965238Y-129918571D01*
X123012857Y-129870952D01*
X123108095Y-129823333D01*
X123346190Y-129823333D01*
X123441428Y-129870952D01*
X123489047Y-129918571D01*
X123536666Y-130013809D01*
X123536666Y-130251904D01*
X123489047Y-130347142D01*
X123441428Y-130394761D01*
X123346190Y-130442380D01*
X123108095Y-130442380D01*
X123012857Y-130394761D01*
X122965238Y-130347142D01*
X124012857Y-130442380D02*
X124203333Y-130442380D01*
X124298571Y-130394761D01*
X124346190Y-130347142D01*
X124441428Y-130204285D01*
X124489047Y-130013809D01*
X124489047Y-129632857D01*
X124441428Y-129537619D01*
X124393809Y-129490000D01*
X124298571Y-129442380D01*
X124108095Y-129442380D01*
X124012857Y-129490000D01*
X123965238Y-129537619D01*
X123917619Y-129632857D01*
X123917619Y-129870952D01*
X123965238Y-129966190D01*
X124012857Y-130013809D01*
X124108095Y-130061428D01*
X124298571Y-130061428D01*
X124393809Y-130013809D01*
X124441428Y-129966190D01*
X124489047Y-129870952D01*
X125393809Y-129442380D02*
X124917619Y-129442380D01*
X124870000Y-129918571D01*
X124917619Y-129870952D01*
X125012857Y-129823333D01*
X125250952Y-129823333D01*
X125346190Y-129870952D01*
X125393809Y-129918571D01*
X125441428Y-130013809D01*
X125441428Y-130251904D01*
X125393809Y-130347142D01*
X125346190Y-130394761D01*
X125250952Y-130442380D01*
X125012857Y-130442380D01*
X124917619Y-130394761D01*
X124870000Y-130347142D01*
X87380952Y-44022380D02*
X88047619Y-44022380D01*
X87619047Y-45022380D01*
X88857142Y-44355714D02*
X88857142Y-45022380D01*
X88619047Y-43974761D02*
X88380952Y-44689047D01*
X89000000Y-44689047D01*
X89857142Y-45022380D02*
X89380952Y-45022380D01*
X89380952Y-44022380D01*
X90142857Y-44974761D02*
X90285714Y-45022380D01*
X90523809Y-45022380D01*
X90619047Y-44974761D01*
X90666666Y-44927142D01*
X90714285Y-44831904D01*
X90714285Y-44736666D01*
X90666666Y-44641428D01*
X90619047Y-44593809D01*
X90523809Y-44546190D01*
X90333333Y-44498571D01*
X90238095Y-44450952D01*
X90190476Y-44403333D01*
X90142857Y-44308095D01*
X90142857Y-44212857D01*
X90190476Y-44117619D01*
X90238095Y-44070000D01*
X90333333Y-44022380D01*
X90571428Y-44022380D01*
X90714285Y-44070000D01*
X91619047Y-44022380D02*
X91142857Y-44022380D01*
X91095238Y-44498571D01*
X91142857Y-44450952D01*
X91238095Y-44403333D01*
X91476190Y-44403333D01*
X91571428Y-44450952D01*
X91619047Y-44498571D01*
X91666666Y-44593809D01*
X91666666Y-44831904D01*
X91619047Y-44927142D01*
X91571428Y-44974761D01*
X91476190Y-45022380D01*
X91238095Y-45022380D01*
X91142857Y-44974761D01*
X91095238Y-44927142D01*
X92142857Y-45022380D02*
X92333333Y-45022380D01*
X92428571Y-44974761D01*
X92476190Y-44927142D01*
X92571428Y-44784285D01*
X92619047Y-44593809D01*
X92619047Y-44212857D01*
X92571428Y-44117619D01*
X92523809Y-44070000D01*
X92428571Y-44022380D01*
X92238095Y-44022380D01*
X92142857Y-44070000D01*
X92095238Y-44117619D01*
X92047619Y-44212857D01*
X92047619Y-44450952D01*
X92095238Y-44546190D01*
X92142857Y-44593809D01*
X92238095Y-44641428D01*
X92428571Y-44641428D01*
X92523809Y-44593809D01*
X92571428Y-44546190D01*
X92619047Y-44450952D01*
X93523809Y-44022380D02*
X93047619Y-44022380D01*
X93000000Y-44498571D01*
X93047619Y-44450952D01*
X93142857Y-44403333D01*
X93380952Y-44403333D01*
X93476190Y-44450952D01*
X93523809Y-44498571D01*
X93571428Y-44593809D01*
X93571428Y-44831904D01*
X93523809Y-44927142D01*
X93476190Y-44974761D01*
X93380952Y-45022380D01*
X93142857Y-45022380D01*
X93047619Y-44974761D01*
X93000000Y-44927142D01*
X131870952Y-44002380D02*
X132537619Y-44002380D01*
X132109047Y-45002380D01*
X133347142Y-44335714D02*
X133347142Y-45002380D01*
X133109047Y-43954761D02*
X132870952Y-44669047D01*
X133490000Y-44669047D01*
X134347142Y-45002380D02*
X133870952Y-45002380D01*
X133870952Y-44002380D01*
X134632857Y-44954761D02*
X134775714Y-45002380D01*
X135013809Y-45002380D01*
X135109047Y-44954761D01*
X135156666Y-44907142D01*
X135204285Y-44811904D01*
X135204285Y-44716666D01*
X135156666Y-44621428D01*
X135109047Y-44573809D01*
X135013809Y-44526190D01*
X134823333Y-44478571D01*
X134728095Y-44430952D01*
X134680476Y-44383333D01*
X134632857Y-44288095D01*
X134632857Y-44192857D01*
X134680476Y-44097619D01*
X134728095Y-44050000D01*
X134823333Y-44002380D01*
X135061428Y-44002380D01*
X135204285Y-44050000D01*
X136109047Y-44002380D02*
X135632857Y-44002380D01*
X135585238Y-44478571D01*
X135632857Y-44430952D01*
X135728095Y-44383333D01*
X135966190Y-44383333D01*
X136061428Y-44430952D01*
X136109047Y-44478571D01*
X136156666Y-44573809D01*
X136156666Y-44811904D01*
X136109047Y-44907142D01*
X136061428Y-44954761D01*
X135966190Y-45002380D01*
X135728095Y-45002380D01*
X135632857Y-44954761D01*
X135585238Y-44907142D01*
X136632857Y-45002380D02*
X136823333Y-45002380D01*
X136918571Y-44954761D01*
X136966190Y-44907142D01*
X137061428Y-44764285D01*
X137109047Y-44573809D01*
X137109047Y-44192857D01*
X137061428Y-44097619D01*
X137013809Y-44050000D01*
X136918571Y-44002380D01*
X136728095Y-44002380D01*
X136632857Y-44050000D01*
X136585238Y-44097619D01*
X136537619Y-44192857D01*
X136537619Y-44430952D01*
X136585238Y-44526190D01*
X136632857Y-44573809D01*
X136728095Y-44621428D01*
X136918571Y-44621428D01*
X137013809Y-44573809D01*
X137061428Y-44526190D01*
X137109047Y-44430952D01*
X138013809Y-44002380D02*
X137537619Y-44002380D01*
X137490000Y-44478571D01*
X137537619Y-44430952D01*
X137632857Y-44383333D01*
X137870952Y-44383333D01*
X137966190Y-44430952D01*
X138013809Y-44478571D01*
X138061428Y-44573809D01*
X138061428Y-44811904D01*
X138013809Y-44907142D01*
X137966190Y-44954761D01*
X137870952Y-45002380D01*
X137632857Y-45002380D01*
X137537619Y-44954761D01*
X137490000Y-44907142D01*
X97050952Y-129442380D02*
X97717619Y-129442380D01*
X97289047Y-130442380D01*
X98527142Y-129775714D02*
X98527142Y-130442380D01*
X98289047Y-129394761D02*
X98050952Y-130109047D01*
X98670000Y-130109047D01*
X99527142Y-130442380D02*
X99050952Y-130442380D01*
X99050952Y-129442380D01*
X99812857Y-130394761D02*
X99955714Y-130442380D01*
X100193809Y-130442380D01*
X100289047Y-130394761D01*
X100336666Y-130347142D01*
X100384285Y-130251904D01*
X100384285Y-130156666D01*
X100336666Y-130061428D01*
X100289047Y-130013809D01*
X100193809Y-129966190D01*
X100003333Y-129918571D01*
X99908095Y-129870952D01*
X99860476Y-129823333D01*
X99812857Y-129728095D01*
X99812857Y-129632857D01*
X99860476Y-129537619D01*
X99908095Y-129490000D01*
X100003333Y-129442380D01*
X100241428Y-129442380D01*
X100384285Y-129490000D01*
X101289047Y-129442380D02*
X100812857Y-129442380D01*
X100765238Y-129918571D01*
X100812857Y-129870952D01*
X100908095Y-129823333D01*
X101146190Y-129823333D01*
X101241428Y-129870952D01*
X101289047Y-129918571D01*
X101336666Y-130013809D01*
X101336666Y-130251904D01*
X101289047Y-130347142D01*
X101241428Y-130394761D01*
X101146190Y-130442380D01*
X100908095Y-130442380D01*
X100812857Y-130394761D01*
X100765238Y-130347142D01*
X101812857Y-130442380D02*
X102003333Y-130442380D01*
X102098571Y-130394761D01*
X102146190Y-130347142D01*
X102241428Y-130204285D01*
X102289047Y-130013809D01*
X102289047Y-129632857D01*
X102241428Y-129537619D01*
X102193809Y-129490000D01*
X102098571Y-129442380D01*
X101908095Y-129442380D01*
X101812857Y-129490000D01*
X101765238Y-129537619D01*
X101717619Y-129632857D01*
X101717619Y-129870952D01*
X101765238Y-129966190D01*
X101812857Y-130013809D01*
X101908095Y-130061428D01*
X102098571Y-130061428D01*
X102193809Y-130013809D01*
X102241428Y-129966190D01*
X102289047Y-129870952D01*
X103193809Y-129442380D02*
X102717619Y-129442380D01*
X102670000Y-129918571D01*
X102717619Y-129870952D01*
X102812857Y-129823333D01*
X103050952Y-129823333D01*
X103146190Y-129870952D01*
X103193809Y-129918571D01*
X103241428Y-130013809D01*
X103241428Y-130251904D01*
X103193809Y-130347142D01*
X103146190Y-130394761D01*
X103050952Y-130442380D01*
X102812857Y-130442380D01*
X102717619Y-130394761D01*
X102670000Y-130347142D01*
X141440952Y-129422380D02*
X142107619Y-129422380D01*
X141679047Y-130422380D01*
X142917142Y-129755714D02*
X142917142Y-130422380D01*
X142679047Y-129374761D02*
X142440952Y-130089047D01*
X143060000Y-130089047D01*
X143917142Y-130422380D02*
X143440952Y-130422380D01*
X143440952Y-129422380D01*
X144202857Y-130374761D02*
X144345714Y-130422380D01*
X144583809Y-130422380D01*
X144679047Y-130374761D01*
X144726666Y-130327142D01*
X144774285Y-130231904D01*
X144774285Y-130136666D01*
X144726666Y-130041428D01*
X144679047Y-129993809D01*
X144583809Y-129946190D01*
X144393333Y-129898571D01*
X144298095Y-129850952D01*
X144250476Y-129803333D01*
X144202857Y-129708095D01*
X144202857Y-129612857D01*
X144250476Y-129517619D01*
X144298095Y-129470000D01*
X144393333Y-129422380D01*
X144631428Y-129422380D01*
X144774285Y-129470000D01*
X145679047Y-129422380D02*
X145202857Y-129422380D01*
X145155238Y-129898571D01*
X145202857Y-129850952D01*
X145298095Y-129803333D01*
X145536190Y-129803333D01*
X145631428Y-129850952D01*
X145679047Y-129898571D01*
X145726666Y-129993809D01*
X145726666Y-130231904D01*
X145679047Y-130327142D01*
X145631428Y-130374761D01*
X145536190Y-130422380D01*
X145298095Y-130422380D01*
X145202857Y-130374761D01*
X145155238Y-130327142D01*
X146202857Y-130422380D02*
X146393333Y-130422380D01*
X146488571Y-130374761D01*
X146536190Y-130327142D01*
X146631428Y-130184285D01*
X146679047Y-129993809D01*
X146679047Y-129612857D01*
X146631428Y-129517619D01*
X146583809Y-129470000D01*
X146488571Y-129422380D01*
X146298095Y-129422380D01*
X146202857Y-129470000D01*
X146155238Y-129517619D01*
X146107619Y-129612857D01*
X146107619Y-129850952D01*
X146155238Y-129946190D01*
X146202857Y-129993809D01*
X146298095Y-130041428D01*
X146488571Y-130041428D01*
X146583809Y-129993809D01*
X146631428Y-129946190D01*
X146679047Y-129850952D01*
X147583809Y-129422380D02*
X147107619Y-129422380D01*
X147060000Y-129898571D01*
X147107619Y-129850952D01*
X147202857Y-129803333D01*
X147440952Y-129803333D01*
X147536190Y-129850952D01*
X147583809Y-129898571D01*
X147631428Y-129993809D01*
X147631428Y-130231904D01*
X147583809Y-130327142D01*
X147536190Y-130374761D01*
X147440952Y-130422380D01*
X147202857Y-130422380D01*
X147107619Y-130374761D01*
X147060000Y-130327142D01*
X65290952Y-44042380D02*
X65957619Y-44042380D01*
X65529047Y-45042380D01*
X66767142Y-44375714D02*
X66767142Y-45042380D01*
X66529047Y-43994761D02*
X66290952Y-44709047D01*
X66910000Y-44709047D01*
X67767142Y-45042380D02*
X67290952Y-45042380D01*
X67290952Y-44042380D01*
X68052857Y-44994761D02*
X68195714Y-45042380D01*
X68433809Y-45042380D01*
X68529047Y-44994761D01*
X68576666Y-44947142D01*
X68624285Y-44851904D01*
X68624285Y-44756666D01*
X68576666Y-44661428D01*
X68529047Y-44613809D01*
X68433809Y-44566190D01*
X68243333Y-44518571D01*
X68148095Y-44470952D01*
X68100476Y-44423333D01*
X68052857Y-44328095D01*
X68052857Y-44232857D01*
X68100476Y-44137619D01*
X68148095Y-44090000D01*
X68243333Y-44042380D01*
X68481428Y-44042380D01*
X68624285Y-44090000D01*
X69529047Y-44042380D02*
X69052857Y-44042380D01*
X69005238Y-44518571D01*
X69052857Y-44470952D01*
X69148095Y-44423333D01*
X69386190Y-44423333D01*
X69481428Y-44470952D01*
X69529047Y-44518571D01*
X69576666Y-44613809D01*
X69576666Y-44851904D01*
X69529047Y-44947142D01*
X69481428Y-44994761D01*
X69386190Y-45042380D01*
X69148095Y-45042380D01*
X69052857Y-44994761D01*
X69005238Y-44947142D01*
X70052857Y-45042380D02*
X70243333Y-45042380D01*
X70338571Y-44994761D01*
X70386190Y-44947142D01*
X70481428Y-44804285D01*
X70529047Y-44613809D01*
X70529047Y-44232857D01*
X70481428Y-44137619D01*
X70433809Y-44090000D01*
X70338571Y-44042380D01*
X70148095Y-44042380D01*
X70052857Y-44090000D01*
X70005238Y-44137619D01*
X69957619Y-44232857D01*
X69957619Y-44470952D01*
X70005238Y-44566190D01*
X70052857Y-44613809D01*
X70148095Y-44661428D01*
X70338571Y-44661428D01*
X70433809Y-44613809D01*
X70481428Y-44566190D01*
X70529047Y-44470952D01*
X71433809Y-44042380D02*
X70957619Y-44042380D01*
X70910000Y-44518571D01*
X70957619Y-44470952D01*
X71052857Y-44423333D01*
X71290952Y-44423333D01*
X71386190Y-44470952D01*
X71433809Y-44518571D01*
X71481428Y-44613809D01*
X71481428Y-44851904D01*
X71433809Y-44947142D01*
X71386190Y-44994761D01*
X71290952Y-45042380D01*
X71052857Y-45042380D01*
X70957619Y-44994761D01*
X70910000Y-44947142D01*
X74860952Y-129662380D02*
X75527619Y-129662380D01*
X75099047Y-130662380D01*
X76337142Y-129995714D02*
X76337142Y-130662380D01*
X76099047Y-129614761D02*
X75860952Y-130329047D01*
X76480000Y-130329047D01*
X77337142Y-130662380D02*
X76860952Y-130662380D01*
X76860952Y-129662380D01*
X77622857Y-130614761D02*
X77765714Y-130662380D01*
X78003809Y-130662380D01*
X78099047Y-130614761D01*
X78146666Y-130567142D01*
X78194285Y-130471904D01*
X78194285Y-130376666D01*
X78146666Y-130281428D01*
X78099047Y-130233809D01*
X78003809Y-130186190D01*
X77813333Y-130138571D01*
X77718095Y-130090952D01*
X77670476Y-130043333D01*
X77622857Y-129948095D01*
X77622857Y-129852857D01*
X77670476Y-129757619D01*
X77718095Y-129710000D01*
X77813333Y-129662380D01*
X78051428Y-129662380D01*
X78194285Y-129710000D01*
X79099047Y-129662380D02*
X78622857Y-129662380D01*
X78575238Y-130138571D01*
X78622857Y-130090952D01*
X78718095Y-130043333D01*
X78956190Y-130043333D01*
X79051428Y-130090952D01*
X79099047Y-130138571D01*
X79146666Y-130233809D01*
X79146666Y-130471904D01*
X79099047Y-130567142D01*
X79051428Y-130614761D01*
X78956190Y-130662380D01*
X78718095Y-130662380D01*
X78622857Y-130614761D01*
X78575238Y-130567142D01*
X79622857Y-130662380D02*
X79813333Y-130662380D01*
X79908571Y-130614761D01*
X79956190Y-130567142D01*
X80051428Y-130424285D01*
X80099047Y-130233809D01*
X80099047Y-129852857D01*
X80051428Y-129757619D01*
X80003809Y-129710000D01*
X79908571Y-129662380D01*
X79718095Y-129662380D01*
X79622857Y-129710000D01*
X79575238Y-129757619D01*
X79527619Y-129852857D01*
X79527619Y-130090952D01*
X79575238Y-130186190D01*
X79622857Y-130233809D01*
X79718095Y-130281428D01*
X79908571Y-130281428D01*
X80003809Y-130233809D01*
X80051428Y-130186190D01*
X80099047Y-130090952D01*
X81003809Y-129662380D02*
X80527619Y-129662380D01*
X80480000Y-130138571D01*
X80527619Y-130090952D01*
X80622857Y-130043333D01*
X80860952Y-130043333D01*
X80956190Y-130090952D01*
X81003809Y-130138571D01*
X81051428Y-130233809D01*
X81051428Y-130471904D01*
X81003809Y-130567142D01*
X80956190Y-130614761D01*
X80860952Y-130662380D01*
X80622857Y-130662380D01*
X80527619Y-130614761D01*
X80480000Y-130567142D01*
D12*
%TO.C,REF\u002A\u002A*%
X97590000Y-53242936D02*
X97590000Y-54697064D01*
X99410000Y-53242936D02*
X99410000Y-54697064D01*
X96360000Y-121517064D02*
X96360000Y-120062936D01*
X98180000Y-121517064D02*
X98180000Y-120062936D01*
X77220000Y-53262936D02*
X77220000Y-54717064D01*
X75400000Y-53262936D02*
X75400000Y-54717064D01*
X143800000Y-53222936D02*
X143800000Y-54677064D01*
X141980000Y-53222936D02*
X141980000Y-54677064D01*
X80990000Y-121537064D02*
X80990000Y-120082936D01*
X79170000Y-121537064D02*
X79170000Y-120082936D01*
X139480000Y-53222936D02*
X139480000Y-54677064D01*
X141300000Y-53222936D02*
X141300000Y-54677064D01*
X90680000Y-121517064D02*
X90680000Y-120062936D01*
X88860000Y-121517064D02*
X88860000Y-120062936D01*
X137570000Y-121497064D02*
X137570000Y-120042936D01*
X135750000Y-121497064D02*
X135750000Y-120042936D01*
X73490000Y-121537064D02*
X73490000Y-120082936D01*
X71670000Y-121537064D02*
X71670000Y-120082936D01*
X148250000Y-121497064D02*
X148250000Y-120042936D01*
X150070000Y-121497064D02*
X150070000Y-120042936D01*
X85990000Y-121537064D02*
X85990000Y-120082936D01*
X84170000Y-121537064D02*
X84170000Y-120082936D01*
X100090000Y-53242936D02*
X100090000Y-54697064D01*
X101910000Y-53242936D02*
X101910000Y-54697064D01*
X143250000Y-121497064D02*
X143250000Y-120042936D01*
X145070000Y-121497064D02*
X145070000Y-120042936D01*
X70400000Y-53262936D02*
X70400000Y-54717064D01*
X72220000Y-53262936D02*
X72220000Y-54717064D01*
X72900000Y-53262936D02*
X72900000Y-54717064D01*
X74720000Y-53262936D02*
X74720000Y-54717064D01*
X106610000Y-53242936D02*
X106610000Y-54697064D01*
X104790000Y-53242936D02*
X104790000Y-54697064D01*
X91910000Y-53242936D02*
X91910000Y-54697064D01*
X90090000Y-53242936D02*
X90090000Y-54697064D01*
X64720000Y-53262936D02*
X64720000Y-54717064D01*
X62900000Y-53262936D02*
X62900000Y-54717064D01*
X95090000Y-53242936D02*
X95090000Y-54697064D01*
X96910000Y-53242936D02*
X96910000Y-54697064D01*
X133250000Y-121497064D02*
X133250000Y-120042936D01*
X135070000Y-121497064D02*
X135070000Y-120042936D01*
X117290000Y-53242936D02*
X117290000Y-54697064D01*
X119110000Y-53242936D02*
X119110000Y-54697064D01*
X77900000Y-53262936D02*
X77900000Y-54717064D01*
X79720000Y-53262936D02*
X79720000Y-54717064D01*
X109110000Y-53242936D02*
X109110000Y-54697064D01*
X107290000Y-53242936D02*
X107290000Y-54697064D01*
X112880000Y-121517064D02*
X112880000Y-120062936D01*
X111060000Y-121517064D02*
X111060000Y-120062936D01*
X142570000Y-121497064D02*
X142570000Y-120042936D01*
X140750000Y-121497064D02*
X140750000Y-120042936D01*
X76670000Y-121537064D02*
X76670000Y-120082936D01*
X78490000Y-121537064D02*
X78490000Y-120082936D01*
X136980000Y-53222936D02*
X136980000Y-54677064D01*
X138800000Y-53222936D02*
X138800000Y-54677064D01*
X111610000Y-53242936D02*
X111610000Y-54697064D01*
X109790000Y-53242936D02*
X109790000Y-54697064D01*
X123560000Y-121517064D02*
X123560000Y-120062936D01*
X125380000Y-121517064D02*
X125380000Y-120062936D01*
X117880000Y-121517064D02*
X117880000Y-120062936D01*
X116060000Y-121517064D02*
X116060000Y-120062936D01*
X128800000Y-53222936D02*
X128800000Y-54677064D01*
X126980000Y-53222936D02*
X126980000Y-54677064D01*
X152570000Y-121497064D02*
X152570000Y-120042936D01*
X150750000Y-121497064D02*
X150750000Y-120042936D01*
X116610000Y-53242936D02*
X116610000Y-54697064D01*
X114790000Y-53242936D02*
X114790000Y-54697064D01*
X131980000Y-53222936D02*
X131980000Y-54677064D01*
X133800000Y-53222936D02*
X133800000Y-54677064D01*
X108180000Y-121517064D02*
X108180000Y-120062936D01*
X106360000Y-121517064D02*
X106360000Y-120062936D01*
X94410000Y-53242936D02*
X94410000Y-54697064D01*
X92590000Y-53242936D02*
X92590000Y-54697064D01*
X60400000Y-53262936D02*
X60400000Y-54717064D01*
X62220000Y-53262936D02*
X62220000Y-54717064D01*
X67220000Y-53262936D02*
X67220000Y-54717064D01*
X65400000Y-53262936D02*
X65400000Y-54717064D01*
X112290000Y-53242936D02*
X112290000Y-54697064D01*
X114110000Y-53242936D02*
X114110000Y-54697064D01*
X121610000Y-53242936D02*
X121610000Y-54697064D01*
X119790000Y-53242936D02*
X119790000Y-54697064D01*
X150030000Y-105400000D02*
X152690000Y-105400000D01*
X150030000Y-72320000D02*
X152690000Y-72320000D01*
X150030000Y-71050000D02*
X150030000Y-69720000D01*
X150030000Y-72320000D02*
X150030000Y-105400000D01*
X150030000Y-69720000D02*
X151360000Y-69720000D01*
X152690000Y-72320000D02*
X152690000Y-105400000D01*
X66670000Y-121537064D02*
X66670000Y-120082936D01*
X68490000Y-121537064D02*
X68490000Y-120082936D01*
X122290000Y-53242936D02*
X122290000Y-54697064D01*
X124110000Y-53242936D02*
X124110000Y-54697064D01*
X118560000Y-121517064D02*
X118560000Y-120062936D01*
X120380000Y-121517064D02*
X120380000Y-120062936D01*
X101360000Y-121517064D02*
X101360000Y-120062936D01*
X103180000Y-121517064D02*
X103180000Y-120062936D01*
X93180000Y-121517064D02*
X93180000Y-120062936D01*
X91360000Y-121517064D02*
X91360000Y-120062936D01*
X144480000Y-53222936D02*
X144480000Y-54677064D01*
X146300000Y-53222936D02*
X146300000Y-54677064D01*
X70990000Y-121537064D02*
X70990000Y-120082936D01*
X69170000Y-121537064D02*
X69170000Y-120082936D01*
X140070000Y-121497064D02*
X140070000Y-120042936D01*
X138250000Y-121497064D02*
X138250000Y-120042936D01*
X98860000Y-121517064D02*
X98860000Y-120062936D01*
X100680000Y-121517064D02*
X100680000Y-120062936D01*
X87590000Y-53242936D02*
X87590000Y-54697064D01*
X89410000Y-53242936D02*
X89410000Y-54697064D01*
X147570000Y-121497064D02*
X147570000Y-120042936D01*
X145750000Y-121497064D02*
X145750000Y-120042936D01*
X122880000Y-121517064D02*
X122880000Y-120062936D01*
X121060000Y-121517064D02*
X121060000Y-120062936D01*
X134480000Y-53222936D02*
X134480000Y-54677064D01*
X136300000Y-53222936D02*
X136300000Y-54677064D01*
X129480000Y-53222936D02*
X129480000Y-54677064D01*
X131300000Y-53222936D02*
X131300000Y-54677064D01*
X113560000Y-121517064D02*
X113560000Y-120062936D01*
X115380000Y-121517064D02*
X115380000Y-120062936D01*
X69720000Y-53262936D02*
X69720000Y-54717064D01*
X67900000Y-53262936D02*
X67900000Y-54717064D01*
X130380000Y-121517064D02*
X130380000Y-120062936D01*
X128560000Y-121517064D02*
X128560000Y-120062936D01*
X75990000Y-121537064D02*
X75990000Y-120082936D01*
X74170000Y-121537064D02*
X74170000Y-120082936D01*
X83490000Y-121537064D02*
X83490000Y-120082936D01*
X81670000Y-121537064D02*
X81670000Y-120082936D01*
X127880000Y-121517064D02*
X127880000Y-120062936D01*
X126060000Y-121517064D02*
X126060000Y-120062936D01*
X84410000Y-53242936D02*
X84410000Y-54697064D01*
X82590000Y-53242936D02*
X82590000Y-54697064D01*
X93860000Y-121517064D02*
X93860000Y-120062936D01*
X95680000Y-121517064D02*
X95680000Y-120062936D01*
X103860000Y-121517064D02*
X103860000Y-120062936D01*
X105680000Y-121517064D02*
X105680000Y-120062936D01*
X60130000Y-105416275D02*
X62790000Y-105416275D01*
X60130000Y-72336275D02*
X62790000Y-72336275D01*
X60130000Y-71066275D02*
X60130000Y-69736275D01*
X62790000Y-72336275D02*
X62790000Y-105416275D01*
X60130000Y-69736275D02*
X61460000Y-69736275D01*
X60130000Y-72336275D02*
X60130000Y-105416275D01*
X86910000Y-53242936D02*
X86910000Y-54697064D01*
X85090000Y-53242936D02*
X85090000Y-54697064D01*
%TO.C,74LS595*%
X122320000Y-47205000D02*
X122320000Y-45670000D01*
X101820000Y-38435000D02*
X101820000Y-50905000D01*
X101880000Y-47205000D02*
X122320000Y-47205000D01*
X101820000Y-50905000D02*
X122380000Y-50905000D01*
X122320000Y-43670000D02*
X122320000Y-42135000D01*
X122380000Y-50905000D02*
X122380000Y-38435000D01*
X122320000Y-42135000D02*
X101880000Y-42135000D01*
X101880000Y-42135000D02*
X101880000Y-47205000D01*
X122380000Y-38435000D02*
X101820000Y-38435000D01*
X122320000Y-43670000D02*
G75*
G03*
X122320000Y-45670000I0J-1000000D01*
G01*
X133350000Y-123855000D02*
X112790000Y-123855000D01*
X133290000Y-132625000D02*
X133290000Y-127555000D01*
X133350000Y-136325000D02*
X133350000Y-123855000D01*
X112790000Y-136325000D02*
X133350000Y-136325000D01*
X112790000Y-123855000D02*
X112790000Y-136325000D01*
X133290000Y-127555000D02*
X112850000Y-127555000D01*
X112850000Y-132625000D02*
X133290000Y-132625000D01*
X112850000Y-131090000D02*
X112850000Y-132625000D01*
X112850000Y-127555000D02*
X112850000Y-129090000D01*
X112850000Y-131090000D02*
G75*
G03*
X112850000Y-129090000I0J1000000D01*
G01*
X79620000Y-50905000D02*
X100180000Y-50905000D01*
X100120000Y-43670000D02*
X100120000Y-42135000D01*
X79680000Y-42135000D02*
X79680000Y-47205000D01*
X100120000Y-47205000D02*
X100120000Y-45670000D01*
X79680000Y-47205000D02*
X100120000Y-47205000D01*
X100180000Y-38435000D02*
X79620000Y-38435000D01*
X79620000Y-38435000D02*
X79620000Y-50905000D01*
X100120000Y-42135000D02*
X79680000Y-42135000D01*
X100180000Y-50905000D02*
X100180000Y-38435000D01*
X100120000Y-43670000D02*
G75*
G03*
X100120000Y-45670000I0J-1000000D01*
G01*
X124070000Y-47185000D02*
X124070000Y-42115000D01*
X144510000Y-45650000D02*
X144510000Y-47185000D01*
X124010000Y-38415000D02*
X144570000Y-38415000D01*
X124010000Y-50885000D02*
X124010000Y-38415000D01*
X144570000Y-50885000D02*
X124010000Y-50885000D01*
X144570000Y-38415000D02*
X144570000Y-50885000D01*
X124070000Y-42115000D02*
X144510000Y-42115000D01*
X144510000Y-42115000D02*
X144510000Y-43650000D01*
X144510000Y-47185000D02*
X124070000Y-47185000D01*
X144510000Y-43650000D02*
G75*
G03*
X144510000Y-45650000I0J-1000000D01*
G01*
X90590000Y-136325000D02*
X111150000Y-136325000D01*
X111150000Y-123855000D02*
X90590000Y-123855000D01*
X111090000Y-132625000D02*
X111090000Y-127555000D01*
X90650000Y-131090000D02*
X90650000Y-132625000D01*
X90590000Y-123855000D02*
X90590000Y-136325000D01*
X111150000Y-136325000D02*
X111150000Y-123855000D01*
X90650000Y-127555000D02*
X90650000Y-129090000D01*
X111090000Y-127555000D02*
X90650000Y-127555000D01*
X90650000Y-132625000D02*
X111090000Y-132625000D01*
X90650000Y-131090000D02*
G75*
G03*
X90650000Y-129090000I0J1000000D01*
G01*
X134980000Y-123835000D02*
X134980000Y-136305000D01*
X135040000Y-131070000D02*
X135040000Y-132605000D01*
X134980000Y-136305000D02*
X155540000Y-136305000D01*
X155480000Y-132605000D02*
X155480000Y-127535000D01*
X155540000Y-136305000D02*
X155540000Y-123835000D01*
X155480000Y-127535000D02*
X135040000Y-127535000D01*
X135040000Y-127535000D02*
X135040000Y-129070000D01*
X135040000Y-132605000D02*
X155480000Y-132605000D01*
X155540000Y-123835000D02*
X134980000Y-123835000D01*
X135040000Y-131070000D02*
G75*
G03*
X135040000Y-129070000I0J1000000D01*
G01*
X57430000Y-50925000D02*
X77990000Y-50925000D01*
X77990000Y-50925000D02*
X77990000Y-38455000D01*
X77930000Y-47225000D02*
X77930000Y-45690000D01*
X57490000Y-47225000D02*
X77930000Y-47225000D01*
X57430000Y-38455000D02*
X57430000Y-50925000D01*
X77930000Y-42155000D02*
X57490000Y-42155000D01*
X77990000Y-38455000D02*
X57430000Y-38455000D01*
X57490000Y-42155000D02*
X57490000Y-47225000D01*
X77930000Y-43690000D02*
X77930000Y-42155000D01*
X77930000Y-43690000D02*
G75*
G03*
X77930000Y-45690000I0J-1000000D01*
G01*
X68460000Y-127575000D02*
X68460000Y-129110000D01*
X68460000Y-132645000D02*
X88900000Y-132645000D01*
X88960000Y-123875000D02*
X68400000Y-123875000D01*
X68400000Y-136345000D02*
X88960000Y-136345000D01*
X68400000Y-123875000D02*
X68400000Y-136345000D01*
X68460000Y-131110000D02*
X68460000Y-132645000D01*
X88900000Y-127575000D02*
X68460000Y-127575000D01*
X88960000Y-136345000D02*
X88960000Y-123875000D01*
X88900000Y-132645000D02*
X88900000Y-127575000D01*
X68460000Y-131110000D02*
G75*
G03*
X68460000Y-129110000I0J1000000D01*
G01*
%TD*%
M02*
