%TF.GenerationSoftware,KiCad,Pcbnew,(6.0.5)*%
%TF.CreationDate,2022-10-16T21:39:42+03:00*%
%TF.ProjectId,LED_MATRIX,4c45445f-4d41-4545-9249-582e6b696361,rev?*%
%TF.SameCoordinates,Original*%
%TF.FileFunction,Copper,L1,Top*%
%TF.FilePolarity,Positive*%
%FSLAX46Y46*%
G04 Gerber Fmt 4.6, Leading zero omitted, Abs format (unit mm)*
G04 Created by KiCad (PCBNEW (6.0.5)) date 2022-10-16 21:39:42*
%MOMM*%
%LPD*%
G01*
G04 APERTURE LIST*
G04 Aperture macros list*
%AMRoundRect*
0 Rectangle with rounded corners*
0 $1 Rounding radius*
0 $2 $3 $4 $5 $6 $7 $8 $9 X,Y pos of 4 corners*
0 Add a 4 corners polygon primitive as box body*
4,1,4,$2,$3,$4,$5,$6,$7,$8,$9,$2,$3,0*
0 Add four circle primitives for the rounded corners*
1,1,$1+$1,$2,$3*
1,1,$1+$1,$4,$5*
1,1,$1+$1,$6,$7*
1,1,$1+$1,$8,$9*
0 Add four rect primitives between the rounded corners*
20,1,$1+$1,$2,$3,$4,$5,0*
20,1,$1+$1,$4,$5,$6,$7,0*
20,1,$1+$1,$6,$7,$8,$9,0*
20,1,$1+$1,$8,$9,$2,$3,0*%
G04 Aperture macros list end*
%TA.AperFunction,SMDPad,CuDef*%
%ADD10RoundRect,0.250000X-0.625000X0.312500X-0.625000X-0.312500X0.625000X-0.312500X0.625000X0.312500X0*%
%TD*%
%TA.AperFunction,SMDPad,CuDef*%
%ADD11RoundRect,0.250000X0.625000X-0.312500X0.625000X0.312500X-0.625000X0.312500X-0.625000X-0.312500X0*%
%TD*%
%TA.AperFunction,ComponentPad*%
%ADD12R,1.700000X1.700000*%
%TD*%
%TA.AperFunction,ComponentPad*%
%ADD13O,1.700000X1.700000*%
%TD*%
%TA.AperFunction,SMDPad,CuDef*%
%ADD14R,1.600000X3.100000*%
%TD*%
%TA.AperFunction,ViaPad*%
%ADD15C,0.800000*%
%TD*%
%TA.AperFunction,Conductor*%
%ADD16C,0.400000*%
%TD*%
%TA.AperFunction,Conductor*%
%ADD17C,0.300000*%
%TD*%
%TA.AperFunction,Conductor*%
%ADD18C,0.600000*%
%TD*%
G04 APERTURE END LIST*
D10*
%TO.P,REF\u002A\u002A,1*%
%TO.N,N/C*%
X98500000Y-52507500D03*
%TO.P,REF\u002A\u002A,2*%
X98500000Y-55432500D03*
%TD*%
D11*
%TO.P,REF\u002A\u002A,1*%
%TO.N,N/C*%
X97270000Y-122252500D03*
%TO.P,REF\u002A\u002A,2*%
X97270000Y-119327500D03*
%TD*%
D10*
%TO.P,REF\u002A\u002A,1*%
%TO.N,N/C*%
X76310000Y-52527500D03*
%TO.P,REF\u002A\u002A,2*%
X76310000Y-55452500D03*
%TD*%
%TO.P,REF\u002A\u002A,1*%
%TO.N,N/C*%
X142890000Y-52487500D03*
%TO.P,REF\u002A\u002A,2*%
X142890000Y-55412500D03*
%TD*%
D11*
%TO.P,REF\u002A\u002A,1*%
%TO.N,N/C*%
X80080000Y-122272500D03*
%TO.P,REF\u002A\u002A,2*%
X80080000Y-119347500D03*
%TD*%
D10*
%TO.P,REF\u002A\u002A,1*%
%TO.N,N/C*%
X140390000Y-52487500D03*
%TO.P,REF\u002A\u002A,2*%
X140390000Y-55412500D03*
%TD*%
D11*
%TO.P,REF\u002A\u002A,1*%
%TO.N,N/C*%
X89770000Y-122252500D03*
%TO.P,REF\u002A\u002A,2*%
X89770000Y-119327500D03*
%TD*%
%TO.P,REF\u002A\u002A,1*%
%TO.N,N/C*%
X136660000Y-122232500D03*
%TO.P,REF\u002A\u002A,2*%
X136660000Y-119307500D03*
%TD*%
%TO.P,REF\u002A\u002A,1*%
%TO.N,N/C*%
X72580000Y-122272500D03*
%TO.P,REF\u002A\u002A,2*%
X72580000Y-119347500D03*
%TD*%
%TO.P,REF\u002A\u002A,1*%
%TO.N,N/C*%
X149160000Y-122232500D03*
%TO.P,REF\u002A\u002A,2*%
X149160000Y-119307500D03*
%TD*%
%TO.P,REF\u002A\u002A,1*%
%TO.N,N/C*%
X85080000Y-122272500D03*
%TO.P,REF\u002A\u002A,2*%
X85080000Y-119347500D03*
%TD*%
D10*
%TO.P,REF\u002A\u002A,1*%
%TO.N,N/C*%
X101000000Y-52507500D03*
%TO.P,REF\u002A\u002A,2*%
X101000000Y-55432500D03*
%TD*%
D11*
%TO.P,REF\u002A\u002A,1*%
%TO.N,N/C*%
X144160000Y-122232500D03*
%TO.P,REF\u002A\u002A,2*%
X144160000Y-119307500D03*
%TD*%
D10*
%TO.P,REF\u002A\u002A,1*%
%TO.N,N/C*%
X71310000Y-52527500D03*
%TO.P,REF\u002A\u002A,2*%
X71310000Y-55452500D03*
%TD*%
%TO.P,REF\u002A\u002A,1*%
%TO.N,N/C*%
X73810000Y-52527500D03*
%TO.P,REF\u002A\u002A,2*%
X73810000Y-55452500D03*
%TD*%
%TO.P,REF\u002A\u002A,1*%
%TO.N,N/C*%
X105700000Y-52507500D03*
%TO.P,REF\u002A\u002A,2*%
X105700000Y-55432500D03*
%TD*%
%TO.P,REF\u002A\u002A,1*%
%TO.N,N/C*%
X91000000Y-52507500D03*
%TO.P,REF\u002A\u002A,2*%
X91000000Y-55432500D03*
%TD*%
%TO.P,REF\u002A\u002A,1*%
%TO.N,N/C*%
X63810000Y-52527500D03*
%TO.P,REF\u002A\u002A,2*%
X63810000Y-55452500D03*
%TD*%
%TO.P,REF\u002A\u002A,1*%
%TO.N,N/C*%
X96000000Y-52507500D03*
%TO.P,REF\u002A\u002A,2*%
X96000000Y-55432500D03*
%TD*%
D11*
%TO.P,REF\u002A\u002A,1*%
%TO.N,N/C*%
X134160000Y-122232500D03*
%TO.P,REF\u002A\u002A,2*%
X134160000Y-119307500D03*
%TD*%
D10*
%TO.P,REF\u002A\u002A,1*%
%TO.N,N/C*%
X118200000Y-52507500D03*
%TO.P,REF\u002A\u002A,2*%
X118200000Y-55432500D03*
%TD*%
%TO.P,REF\u002A\u002A,1*%
%TO.N,N/C*%
X78810000Y-52527500D03*
%TO.P,REF\u002A\u002A,2*%
X78810000Y-55452500D03*
%TD*%
%TO.P,REF\u002A\u002A,1*%
%TO.N,N/C*%
X108200000Y-52507500D03*
%TO.P,REF\u002A\u002A,2*%
X108200000Y-55432500D03*
%TD*%
D11*
%TO.P,REF\u002A\u002A,1*%
%TO.N,N/C*%
X111970000Y-122252500D03*
%TO.P,REF\u002A\u002A,2*%
X111970000Y-119327500D03*
%TD*%
%TO.P,REF\u002A\u002A,1*%
%TO.N,N/C*%
X141660000Y-122232500D03*
%TO.P,REF\u002A\u002A,2*%
X141660000Y-119307500D03*
%TD*%
%TO.P,REF\u002A\u002A,1*%
%TO.N,N/C*%
X77580000Y-122272500D03*
%TO.P,REF\u002A\u002A,2*%
X77580000Y-119347500D03*
%TD*%
D10*
%TO.P,REF\u002A\u002A,1*%
%TO.N,N/C*%
X137890000Y-52487500D03*
%TO.P,REF\u002A\u002A,2*%
X137890000Y-55412500D03*
%TD*%
%TO.P,REF\u002A\u002A,1*%
%TO.N,N/C*%
X110700000Y-52507500D03*
%TO.P,REF\u002A\u002A,2*%
X110700000Y-55432500D03*
%TD*%
D11*
%TO.P,REF\u002A\u002A,1*%
%TO.N,N/C*%
X124470000Y-122252500D03*
%TO.P,REF\u002A\u002A,2*%
X124470000Y-119327500D03*
%TD*%
%TO.P,REF\u002A\u002A,1*%
%TO.N,N/C*%
X116970000Y-122252500D03*
%TO.P,REF\u002A\u002A,2*%
X116970000Y-119327500D03*
%TD*%
D10*
%TO.P,REF\u002A\u002A,1*%
%TO.N,N/C*%
X127890000Y-52487500D03*
%TO.P,REF\u002A\u002A,2*%
X127890000Y-55412500D03*
%TD*%
D11*
%TO.P,REF\u002A\u002A,1*%
%TO.N,N/C*%
X151660000Y-122232500D03*
%TO.P,REF\u002A\u002A,2*%
X151660000Y-119307500D03*
%TD*%
D10*
%TO.P,REF\u002A\u002A,1*%
%TO.N,N/C*%
X115700000Y-52507500D03*
%TO.P,REF\u002A\u002A,2*%
X115700000Y-55432500D03*
%TD*%
%TO.P,REF\u002A\u002A,1*%
%TO.N,N/C*%
X132890000Y-52487500D03*
%TO.P,REF\u002A\u002A,2*%
X132890000Y-55412500D03*
%TD*%
D11*
%TO.P,REF\u002A\u002A,1*%
%TO.N,N/C*%
X107270000Y-122252500D03*
%TO.P,REF\u002A\u002A,2*%
X107270000Y-119327500D03*
%TD*%
D10*
%TO.P,REF\u002A\u002A,1*%
%TO.N,N/C*%
X93500000Y-52507500D03*
%TO.P,REF\u002A\u002A,2*%
X93500000Y-55432500D03*
%TD*%
%TO.P,REF\u002A\u002A,1*%
%TO.N,N/C*%
X61310000Y-52527500D03*
%TO.P,REF\u002A\u002A,2*%
X61310000Y-55452500D03*
%TD*%
%TO.P,REF\u002A\u002A,1*%
%TO.N,N/C*%
X66310000Y-52527500D03*
%TO.P,REF\u002A\u002A,2*%
X66310000Y-55452500D03*
%TD*%
%TO.P,REF\u002A\u002A,1*%
%TO.N,N/C*%
X113200000Y-52507500D03*
%TO.P,REF\u002A\u002A,2*%
X113200000Y-55432500D03*
%TD*%
%TO.P,REF\u002A\u002A,1*%
%TO.N,N/C*%
X120700000Y-52507500D03*
%TO.P,REF\u002A\u002A,2*%
X120700000Y-55432500D03*
%TD*%
D12*
%TO.P,REF\u002A\u002A,1*%
%TO.N,N/C*%
X151360000Y-71050000D03*
D13*
%TO.P,REF\u002A\u002A,2*%
X151360000Y-73590000D03*
%TO.P,REF\u002A\u002A,3*%
X151360000Y-76130000D03*
%TO.P,REF\u002A\u002A,4*%
X151360000Y-78670000D03*
%TO.P,REF\u002A\u002A,5*%
X151360000Y-81210000D03*
%TO.P,REF\u002A\u002A,6*%
X151360000Y-83750000D03*
%TO.P,REF\u002A\u002A,7*%
X151360000Y-86290000D03*
%TO.P,REF\u002A\u002A,8*%
X151360000Y-88830000D03*
%TO.P,REF\u002A\u002A,9*%
X151360000Y-91370000D03*
%TO.P,REF\u002A\u002A,10*%
X151360000Y-93910000D03*
%TO.P,REF\u002A\u002A,11*%
X151360000Y-96450000D03*
%TO.P,REF\u002A\u002A,12*%
X151360000Y-98990000D03*
%TO.P,REF\u002A\u002A,13*%
X151360000Y-101530000D03*
%TO.P,REF\u002A\u002A,14*%
X151360000Y-104070000D03*
%TD*%
D11*
%TO.P,REF\u002A\u002A,1*%
%TO.N,N/C*%
X67580000Y-122272500D03*
%TO.P,REF\u002A\u002A,2*%
X67580000Y-119347500D03*
%TD*%
D10*
%TO.P,REF\u002A\u002A,1*%
%TO.N,N/C*%
X123200000Y-52507500D03*
%TO.P,REF\u002A\u002A,2*%
X123200000Y-55432500D03*
%TD*%
D11*
%TO.P,REF\u002A\u002A,1*%
%TO.N,N/C*%
X119470000Y-122252500D03*
%TO.P,REF\u002A\u002A,2*%
X119470000Y-119327500D03*
%TD*%
%TO.P,REF\u002A\u002A,1*%
%TO.N,N/C*%
X102270000Y-122252500D03*
%TO.P,REF\u002A\u002A,2*%
X102270000Y-119327500D03*
%TD*%
%TO.P,REF\u002A\u002A,1*%
%TO.N,N/C*%
X92270000Y-122252500D03*
%TO.P,REF\u002A\u002A,2*%
X92270000Y-119327500D03*
%TD*%
D10*
%TO.P,REF\u002A\u002A,1*%
%TO.N,N/C*%
X145390000Y-52487500D03*
%TO.P,REF\u002A\u002A,2*%
X145390000Y-55412500D03*
%TD*%
D11*
%TO.P,REF\u002A\u002A,1*%
%TO.N,N/C*%
X70080000Y-122272500D03*
%TO.P,REF\u002A\u002A,2*%
X70080000Y-119347500D03*
%TD*%
%TO.P,REF\u002A\u002A,1*%
%TO.N,N/C*%
X139160000Y-122232500D03*
%TO.P,REF\u002A\u002A,2*%
X139160000Y-119307500D03*
%TD*%
%TO.P,REF\u002A\u002A,1*%
%TO.N,N/C*%
X99770000Y-122252500D03*
%TO.P,REF\u002A\u002A,2*%
X99770000Y-119327500D03*
%TD*%
D10*
%TO.P,REF\u002A\u002A,1*%
%TO.N,N/C*%
X88500000Y-52507500D03*
%TO.P,REF\u002A\u002A,2*%
X88500000Y-55432500D03*
%TD*%
D11*
%TO.P,REF\u002A\u002A,1*%
%TO.N,N/C*%
X146660000Y-122232500D03*
%TO.P,REF\u002A\u002A,2*%
X146660000Y-119307500D03*
%TD*%
%TO.P,REF\u002A\u002A,1*%
%TO.N,N/C*%
X121970000Y-122252500D03*
%TO.P,REF\u002A\u002A,2*%
X121970000Y-119327500D03*
%TD*%
D10*
%TO.P,REF\u002A\u002A,1*%
%TO.N,N/C*%
X135390000Y-52487500D03*
%TO.P,REF\u002A\u002A,2*%
X135390000Y-55412500D03*
%TD*%
%TO.P,REF\u002A\u002A,1*%
%TO.N,N/C*%
X130390000Y-52487500D03*
%TO.P,REF\u002A\u002A,2*%
X130390000Y-55412500D03*
%TD*%
D11*
%TO.P,REF\u002A\u002A,1*%
%TO.N,N/C*%
X114470000Y-122252500D03*
%TO.P,REF\u002A\u002A,2*%
X114470000Y-119327500D03*
%TD*%
D10*
%TO.P,REF\u002A\u002A,1*%
%TO.N,N/C*%
X68810000Y-52527500D03*
%TO.P,REF\u002A\u002A,2*%
X68810000Y-55452500D03*
%TD*%
D11*
%TO.P,REF\u002A\u002A,1*%
%TO.N,N/C*%
X129470000Y-122252500D03*
%TO.P,REF\u002A\u002A,2*%
X129470000Y-119327500D03*
%TD*%
%TO.P,REF\u002A\u002A,1*%
%TO.N,N/C*%
X75080000Y-122272500D03*
%TO.P,REF\u002A\u002A,2*%
X75080000Y-119347500D03*
%TD*%
%TO.P,REF\u002A\u002A,1*%
%TO.N,N/C*%
X82580000Y-122272500D03*
%TO.P,REF\u002A\u002A,2*%
X82580000Y-119347500D03*
%TD*%
%TO.P,REF\u002A\u002A,1*%
%TO.N,N/C*%
X126970000Y-122252500D03*
%TO.P,REF\u002A\u002A,2*%
X126970000Y-119327500D03*
%TD*%
D10*
%TO.P,REF\u002A\u002A,1*%
%TO.N,N/C*%
X83500000Y-52507500D03*
%TO.P,REF\u002A\u002A,2*%
X83500000Y-55432500D03*
%TD*%
D11*
%TO.P,REF\u002A\u002A,1*%
%TO.N,N/C*%
X94770000Y-122252500D03*
%TO.P,REF\u002A\u002A,2*%
X94770000Y-119327500D03*
%TD*%
%TO.P,REF\u002A\u002A,1*%
%TO.N,N/C*%
X104770000Y-122252500D03*
%TO.P,REF\u002A\u002A,2*%
X104770000Y-119327500D03*
%TD*%
D12*
%TO.P,REF\u002A\u002A,1*%
%TO.N,N/C*%
X61460000Y-71066275D03*
D13*
%TO.P,REF\u002A\u002A,2*%
X61460000Y-73606275D03*
%TO.P,REF\u002A\u002A,3*%
X61460000Y-76146275D03*
%TO.P,REF\u002A\u002A,4*%
X61460000Y-78686275D03*
%TO.P,REF\u002A\u002A,5*%
X61460000Y-81226275D03*
%TO.P,REF\u002A\u002A,6*%
X61460000Y-83766275D03*
%TO.P,REF\u002A\u002A,7*%
X61460000Y-86306275D03*
%TO.P,REF\u002A\u002A,8*%
X61460000Y-88846275D03*
%TO.P,REF\u002A\u002A,9*%
X61460000Y-91386275D03*
%TO.P,REF\u002A\u002A,10*%
X61460000Y-93926275D03*
%TO.P,REF\u002A\u002A,11*%
X61460000Y-96466275D03*
%TO.P,REF\u002A\u002A,12*%
X61460000Y-99006275D03*
%TO.P,REF\u002A\u002A,13*%
X61460000Y-101546275D03*
%TO.P,REF\u002A\u002A,14*%
X61460000Y-104086275D03*
%TD*%
D10*
%TO.P,REF\u002A\u002A,1*%
%TO.N,N/C*%
X86000000Y-52507500D03*
%TO.P,REF\u002A\u002A,2*%
X86000000Y-55432500D03*
%TD*%
D14*
%TO.P,74LS595,1*%
%TO.N,N/C*%
X120990000Y-49750000D03*
%TO.P,74LS595,2*%
X118450000Y-49750000D03*
%TO.P,74LS595,3*%
X115910000Y-49750000D03*
%TO.P,74LS595,4*%
X113370000Y-49750000D03*
%TO.P,74LS595,5*%
X110830000Y-49750000D03*
%TO.P,74LS595,6*%
X108290000Y-49750000D03*
%TO.P,74LS595,7*%
X105750000Y-49750000D03*
%TO.P,74LS595,8*%
X103210000Y-49750000D03*
%TO.P,74LS595,9*%
X103210000Y-39590000D03*
%TO.P,74LS595,10*%
X105750000Y-39590000D03*
%TO.P,74LS595,11*%
X108290000Y-39590000D03*
%TO.P,74LS595,12*%
X110830000Y-39590000D03*
%TO.P,74LS595,13*%
X113370000Y-39590000D03*
%TO.P,74LS595,14*%
X115910000Y-39590000D03*
%TO.P,74LS595,15*%
X118450000Y-39590000D03*
%TO.P,74LS595,16*%
X120990000Y-39590000D03*
%TD*%
%TO.P,74LS595,1*%
%TO.N,N/C*%
X114180000Y-125010000D03*
%TO.P,74LS595,2*%
X116720000Y-125010000D03*
%TO.P,74LS595,3*%
X119260000Y-125010000D03*
%TO.P,74LS595,4*%
X121800000Y-125010000D03*
%TO.P,74LS595,5*%
X124340000Y-125010000D03*
%TO.P,74LS595,6*%
X126880000Y-125010000D03*
%TO.P,74LS595,7*%
X129420000Y-125010000D03*
%TO.P,74LS595,8*%
X131960000Y-125010000D03*
%TO.P,74LS595,9*%
X131960000Y-135170000D03*
%TO.P,74LS595,10*%
X129420000Y-135170000D03*
%TO.P,74LS595,11*%
X126880000Y-135170000D03*
%TO.P,74LS595,12*%
X124340000Y-135170000D03*
%TO.P,74LS595,13*%
X121800000Y-135170000D03*
%TO.P,74LS595,14*%
X119260000Y-135170000D03*
%TO.P,74LS595,15*%
X116720000Y-135170000D03*
%TO.P,74LS595,16*%
X114180000Y-135170000D03*
%TD*%
%TO.P,74LS595,1*%
%TO.N,N/C*%
X98790000Y-49750000D03*
%TO.P,74LS595,2*%
X96250000Y-49750000D03*
%TO.P,74LS595,3*%
X93710000Y-49750000D03*
%TO.P,74LS595,4*%
X91170000Y-49750000D03*
%TO.P,74LS595,5*%
X88630000Y-49750000D03*
%TO.P,74LS595,6*%
X86090000Y-49750000D03*
%TO.P,74LS595,7*%
X83550000Y-49750000D03*
%TO.P,74LS595,8*%
X81010000Y-49750000D03*
%TO.P,74LS595,9*%
X81010000Y-39590000D03*
%TO.P,74LS595,10*%
X83550000Y-39590000D03*
%TO.P,74LS595,11*%
X86090000Y-39590000D03*
%TO.P,74LS595,12*%
X88630000Y-39590000D03*
%TO.P,74LS595,13*%
X91170000Y-39590000D03*
%TO.P,74LS595,14*%
X93710000Y-39590000D03*
%TO.P,74LS595,15*%
X96250000Y-39590000D03*
%TO.P,74LS595,16*%
X98790000Y-39590000D03*
%TD*%
%TO.P,74LS595,1*%
%TO.N,N/C*%
X143180000Y-49730000D03*
%TO.P,74LS595,2*%
X140640000Y-49730000D03*
%TO.P,74LS595,3*%
X138100000Y-49730000D03*
%TO.P,74LS595,4*%
X135560000Y-49730000D03*
%TO.P,74LS595,5*%
X133020000Y-49730000D03*
%TO.P,74LS595,6*%
X130480000Y-49730000D03*
%TO.P,74LS595,7*%
X127940000Y-49730000D03*
%TO.P,74LS595,8*%
X125400000Y-49730000D03*
%TO.P,74LS595,9*%
X125400000Y-39570000D03*
%TO.P,74LS595,10*%
X127940000Y-39570000D03*
%TO.P,74LS595,11*%
X130480000Y-39570000D03*
%TO.P,74LS595,12*%
X133020000Y-39570000D03*
%TO.P,74LS595,13*%
X135560000Y-39570000D03*
%TO.P,74LS595,14*%
X138100000Y-39570000D03*
%TO.P,74LS595,15*%
X140640000Y-39570000D03*
%TO.P,74LS595,16*%
X143180000Y-39570000D03*
%TD*%
%TO.P,74LS595,1*%
%TO.N,N/C*%
X91980000Y-125010000D03*
%TO.P,74LS595,2*%
X94520000Y-125010000D03*
%TO.P,74LS595,3*%
X97060000Y-125010000D03*
%TO.P,74LS595,4*%
X99600000Y-125010000D03*
%TO.P,74LS595,5*%
X102140000Y-125010000D03*
%TO.P,74LS595,6*%
X104680000Y-125010000D03*
%TO.P,74LS595,7*%
X107220000Y-125010000D03*
%TO.P,74LS595,8*%
X109760000Y-125010000D03*
%TO.P,74LS595,9*%
X109760000Y-135170000D03*
%TO.P,74LS595,10*%
X107220000Y-135170000D03*
%TO.P,74LS595,11*%
X104680000Y-135170000D03*
%TO.P,74LS595,12*%
X102140000Y-135170000D03*
%TO.P,74LS595,13*%
X99600000Y-135170000D03*
%TO.P,74LS595,14*%
X97060000Y-135170000D03*
%TO.P,74LS595,15*%
X94520000Y-135170000D03*
%TO.P,74LS595,16*%
X91980000Y-135170000D03*
%TD*%
%TO.P,74LS595,1*%
%TO.N,N/C*%
X136370000Y-124990000D03*
%TO.P,74LS595,2*%
X138910000Y-124990000D03*
%TO.P,74LS595,3*%
X141450000Y-124990000D03*
%TO.P,74LS595,4*%
X143990000Y-124990000D03*
%TO.P,74LS595,5*%
X146530000Y-124990000D03*
%TO.P,74LS595,6*%
X149070000Y-124990000D03*
%TO.P,74LS595,7*%
X151610000Y-124990000D03*
%TO.P,74LS595,8*%
X154150000Y-124990000D03*
%TO.P,74LS595,9*%
X154150000Y-135150000D03*
%TO.P,74LS595,10*%
X151610000Y-135150000D03*
%TO.P,74LS595,11*%
X149070000Y-135150000D03*
%TO.P,74LS595,12*%
X146530000Y-135150000D03*
%TO.P,74LS595,13*%
X143990000Y-135150000D03*
%TO.P,74LS595,14*%
X141450000Y-135150000D03*
%TO.P,74LS595,15*%
X138910000Y-135150000D03*
%TO.P,74LS595,16*%
X136370000Y-135150000D03*
%TD*%
%TO.P,74LS595,1*%
%TO.N,N/C*%
X76600000Y-49770000D03*
%TO.P,74LS595,2*%
X74060000Y-49770000D03*
%TO.P,74LS595,3*%
X71520000Y-49770000D03*
%TO.P,74LS595,4*%
X68980000Y-49770000D03*
%TO.P,74LS595,5*%
X66440000Y-49770000D03*
%TO.P,74LS595,6*%
X63900000Y-49770000D03*
%TO.P,74LS595,7*%
X61360000Y-49770000D03*
%TO.P,74LS595,8*%
X58820000Y-49770000D03*
%TO.P,74LS595,9*%
X58820000Y-39610000D03*
%TO.P,74LS595,10*%
X61360000Y-39610000D03*
%TO.P,74LS595,11*%
X63900000Y-39610000D03*
%TO.P,74LS595,12*%
X66440000Y-39610000D03*
%TO.P,74LS595,13*%
X68980000Y-39610000D03*
%TO.P,74LS595,14*%
X71520000Y-39610000D03*
%TO.P,74LS595,15*%
X74060000Y-39610000D03*
%TO.P,74LS595,16*%
X76600000Y-39610000D03*
%TD*%
%TO.P,74LS595,1*%
%TO.N,N/C*%
X69790000Y-125030000D03*
%TO.P,74LS595,2*%
X72330000Y-125030000D03*
%TO.P,74LS595,3*%
X74870000Y-125030000D03*
%TO.P,74LS595,4*%
X77410000Y-125030000D03*
%TO.P,74LS595,5*%
X79950000Y-125030000D03*
%TO.P,74LS595,6*%
X82490000Y-125030000D03*
%TO.P,74LS595,7*%
X85030000Y-125030000D03*
%TO.P,74LS595,8*%
X87570000Y-125030000D03*
%TO.P,74LS595,9*%
X87570000Y-135190000D03*
%TO.P,74LS595,10*%
X85030000Y-135190000D03*
%TO.P,74LS595,11*%
X82490000Y-135190000D03*
%TO.P,74LS595,12*%
X79950000Y-135190000D03*
%TO.P,74LS595,13*%
X77410000Y-135190000D03*
%TO.P,74LS595,14*%
X74870000Y-135190000D03*
%TO.P,74LS595,15*%
X72330000Y-135190000D03*
%TO.P,74LS595,16*%
X69790000Y-135190000D03*
%TD*%
D15*
%TO.N,*%
X145060000Y-113070000D03*
X130660000Y-61870000D03*
X132960000Y-42770000D03*
X147460000Y-48170000D03*
X65860000Y-105270000D03*
X81760000Y-113070000D03*
X79560000Y-111970000D03*
X148360000Y-81170000D03*
X123960000Y-113070000D03*
X125360000Y-45170000D03*
X119280000Y-129520000D03*
X58760000Y-52070000D03*
X87460000Y-122310000D03*
X87550000Y-129790000D03*
X89760000Y-135170000D03*
X115060000Y-61870000D03*
X146260000Y-49570000D03*
X152860000Y-42370000D03*
X66460000Y-41970000D03*
X141450000Y-129810000D03*
X86060000Y-113070000D03*
X104640000Y-131400000D03*
X143960000Y-113070000D03*
X100660000Y-113070000D03*
X123160000Y-39570000D03*
X107160000Y-130540000D03*
X59260000Y-98670000D03*
X63460000Y-72670000D03*
X146260000Y-104070000D03*
X125360000Y-52070000D03*
X103960000Y-113070000D03*
X72860000Y-61870000D03*
X70660000Y-61870000D03*
X80660000Y-113070000D03*
X93660000Y-45170000D03*
X61360000Y-41970000D03*
X149070000Y-132920000D03*
X131760000Y-61870000D03*
X143980000Y-132980000D03*
X62360000Y-126370000D03*
X147560000Y-76070000D03*
X133960000Y-61870000D03*
X99570000Y-132960000D03*
X65520000Y-127170000D03*
X67360000Y-110570000D03*
X113960000Y-61870000D03*
X127860000Y-44370000D03*
X132860000Y-61870000D03*
X102010000Y-132180000D03*
X65060000Y-104470000D03*
X129560000Y-61870000D03*
X103160000Y-45170000D03*
X89560000Y-61870000D03*
X86060000Y-43570000D03*
X120660000Y-113070000D03*
X113360000Y-41970000D03*
X97090000Y-129810000D03*
X101760000Y-113070000D03*
X85060000Y-130530000D03*
X110860000Y-42770000D03*
X69560000Y-62970000D03*
X67360000Y-112370000D03*
X119560000Y-111970000D03*
X109660000Y-122310000D03*
X75060000Y-61870000D03*
X69560000Y-61870000D03*
X61360000Y-123170000D03*
X63460000Y-104470000D03*
X105060000Y-113070000D03*
X103160000Y-52070000D03*
X64260000Y-71870000D03*
X131980000Y-129640000D03*
X105760000Y-44370000D03*
X112860000Y-61870000D03*
X64260000Y-105270000D03*
X73960000Y-61870000D03*
X83560000Y-44370000D03*
X61960000Y-69470000D03*
X134160000Y-135170000D03*
X93960000Y-61870000D03*
X77400000Y-132970000D03*
X136160000Y-61870000D03*
X149560000Y-45370000D03*
X82860000Y-113070000D03*
X76160000Y-61870000D03*
X63460000Y-76070000D03*
X63860000Y-41970000D03*
X58860000Y-41970000D03*
X146530000Y-132920000D03*
X68960000Y-41970000D03*
X154160000Y-132770000D03*
X65860000Y-73570000D03*
X64260000Y-83770000D03*
X116160000Y-61870000D03*
X129560000Y-62970000D03*
X65060000Y-78670000D03*
X111760000Y-61870000D03*
X78760000Y-39570000D03*
X71760000Y-61870000D03*
X109560000Y-61870000D03*
X149230000Y-88830000D03*
X135560000Y-41970000D03*
X96160000Y-61870000D03*
X153750000Y-101530000D03*
X102860000Y-113070000D03*
X147260000Y-78650000D03*
X122860000Y-113070000D03*
X131910000Y-122310000D03*
X146160000Y-113070000D03*
X139560000Y-113070000D03*
X66360000Y-130540000D03*
X95060000Y-61870000D03*
X62860000Y-127970000D03*
X111960000Y-135170000D03*
X153760000Y-41670000D03*
X92860000Y-61870000D03*
X139560000Y-111970000D03*
X57760000Y-100170000D03*
X59260000Y-100170000D03*
X67660000Y-135170000D03*
X65060000Y-72670000D03*
X99560000Y-113070000D03*
X148260000Y-104070000D03*
X129420000Y-130530000D03*
X65560000Y-131370000D03*
X141760000Y-113070000D03*
X138240000Y-44410000D03*
X100860000Y-39570000D03*
X61860000Y-124770000D03*
X63460000Y-86270000D03*
X81060000Y-45170000D03*
X121810000Y-132970000D03*
X149260000Y-104070000D03*
X110660000Y-61870000D03*
X148260000Y-83770000D03*
X126880000Y-131360000D03*
X125060000Y-113070000D03*
X99560000Y-111970000D03*
X83960000Y-113070000D03*
X91160000Y-41970000D03*
X126160000Y-113070000D03*
X142860000Y-113070000D03*
X108260000Y-43570000D03*
X151060000Y-43770000D03*
X63460000Y-81170000D03*
X115860000Y-45170000D03*
X154150000Y-122310000D03*
X79960000Y-132170000D03*
X119560000Y-113070000D03*
X109770000Y-129630000D03*
X121760000Y-113070000D03*
X66700000Y-123960000D03*
X74830000Y-128810000D03*
X71560000Y-45170000D03*
X109560000Y-62970000D03*
X65030000Y-128790000D03*
X124230000Y-132170000D03*
X89560000Y-62970000D03*
X88660000Y-42770000D03*
X146260000Y-73570000D03*
X151620000Y-132840000D03*
X85060000Y-113070000D03*
X90660000Y-61870000D03*
X63460000Y-88870000D03*
X91760000Y-61870000D03*
X145360000Y-39570000D03*
X148660000Y-46870000D03*
X106160000Y-113070000D03*
X67260000Y-103470000D03*
X79560000Y-113070000D03*
X59260000Y-103170000D03*
X147260000Y-104070000D03*
X149160000Y-86270000D03*
X140660000Y-113070000D03*
X66070000Y-125610000D03*
X82510000Y-131380000D03*
X80960000Y-51970000D03*
X135060000Y-61870000D03*
X151960000Y-43070000D03*
X146760000Y-71070000D03*
X130460000Y-43570000D03*
X66060000Y-69470000D03*
%TD*%
D16*
%TO.N,*%
X114470000Y-118160000D02*
X114470000Y-119327500D01*
D17*
X147660000Y-55870000D02*
X147660000Y-48370000D01*
D16*
X135560000Y-49730000D02*
X135560000Y-52317500D01*
X118200000Y-56930000D02*
X118200000Y-55432500D01*
X91000000Y-56910000D02*
X91000000Y-55432500D01*
D17*
X152860000Y-42370000D02*
X152860000Y-59870000D01*
X66060000Y-69470000D02*
X67260000Y-69470000D01*
D16*
X61463725Y-83770000D02*
X61460000Y-83766275D01*
D17*
X150960000Y-59570000D02*
X149160000Y-59570000D01*
X69760000Y-111370000D02*
X69760000Y-111270000D01*
D16*
X85080000Y-118250000D02*
X85080000Y-119347500D01*
X91170000Y-52337500D02*
X91000000Y-52507500D01*
D17*
X151960000Y-43070000D02*
X151960000Y-58570000D01*
D16*
X136370000Y-124990000D02*
X136370000Y-122522500D01*
X100660000Y-113070000D02*
X100660000Y-113770000D01*
X77400000Y-132970000D02*
X77410000Y-132980000D01*
X145390000Y-55440000D02*
X145390000Y-55412500D01*
X115060000Y-61870000D02*
X115060000Y-61570000D01*
X98790000Y-49750000D02*
X98790000Y-52217500D01*
X127940000Y-44290000D02*
X127940000Y-39570000D01*
X57260000Y-100670000D02*
X57260000Y-103540000D01*
X63460000Y-76070000D02*
X63383725Y-76146275D01*
X108460000Y-60170000D02*
X105700000Y-57410000D01*
X135390000Y-58240000D02*
X135390000Y-55412500D01*
X138910000Y-124990000D02*
X138910000Y-122482500D01*
X85060000Y-130530000D02*
X85030000Y-130560000D01*
X77410000Y-122442500D02*
X77580000Y-122272500D01*
X110660000Y-55472500D02*
X110700000Y-55432500D01*
X134360000Y-59470000D02*
X137260000Y-59470000D01*
X71520000Y-49770000D02*
X71520000Y-52317500D01*
X96000000Y-56630000D02*
X96000000Y-55432500D01*
X74830000Y-128810000D02*
X74870000Y-128850000D01*
D17*
X65860000Y-108370000D02*
X65860000Y-105270000D01*
X65515000Y-115615000D02*
X63660000Y-117470000D01*
D18*
X80960000Y-51970000D02*
X80960000Y-49800000D01*
D16*
X106160000Y-116770000D02*
X107270000Y-117880000D01*
X72330000Y-125030000D02*
X72330000Y-122522500D01*
D17*
X154060000Y-69470000D02*
X154060000Y-92970000D01*
X147660000Y-48370000D02*
X147460000Y-48170000D01*
D16*
X97060000Y-125010000D02*
X97060000Y-122462500D01*
D17*
X146260000Y-104070000D02*
X146260000Y-106970000D01*
D16*
X103210000Y-45120000D02*
X103210000Y-39590000D01*
X72860000Y-58770000D02*
X71310000Y-57220000D01*
X120660000Y-113070000D02*
X120660000Y-113570000D01*
X67580000Y-122272500D02*
X67580000Y-127210000D01*
X121800000Y-125010000D02*
X121800000Y-122422500D01*
X136760000Y-116670000D02*
X136760000Y-119207500D01*
X91760000Y-61870000D02*
X91760000Y-57670000D01*
X124340000Y-122382500D02*
X124470000Y-122252500D01*
D17*
X150360000Y-55970000D02*
X150360000Y-44770000D01*
D16*
X80960000Y-49800000D02*
X81010000Y-49750000D01*
D17*
X149560000Y-47270000D02*
X149060000Y-47770000D01*
D18*
X152660000Y-104070000D02*
X151360000Y-104070000D01*
D17*
X65560000Y-113170000D02*
X65560000Y-110070000D01*
D16*
X63810000Y-55452500D02*
X63810000Y-56220000D01*
D17*
X65060000Y-108570000D02*
X65060000Y-104470000D01*
D16*
X103160000Y-49800000D02*
X103210000Y-49750000D01*
X67580000Y-127210000D02*
X72330000Y-127210000D01*
X106160000Y-113070000D02*
X106160000Y-116770000D01*
D18*
X109660000Y-124910000D02*
X109760000Y-125010000D01*
D17*
X63660000Y-129470000D02*
X65560000Y-131370000D01*
D16*
X109560000Y-62970000D02*
X109060000Y-62970000D01*
X147280000Y-78630000D02*
X151320000Y-78630000D01*
X82860000Y-115270000D02*
X82360000Y-115770000D01*
X129420000Y-122302500D02*
X129470000Y-122252500D01*
X129420000Y-125010000D02*
X129420000Y-122302500D01*
X140640000Y-52237500D02*
X140390000Y-52487500D01*
X88660000Y-42770000D02*
X88660000Y-39620000D01*
X105750000Y-49750000D02*
X105750000Y-52457500D01*
X61483725Y-88870000D02*
X61460000Y-88846275D01*
X66440000Y-49770000D02*
X66440000Y-52397500D01*
X102860000Y-113070000D02*
X102860000Y-114570000D01*
X102030000Y-132200000D02*
X102030000Y-135060000D01*
X116970000Y-117260000D02*
X116970000Y-119327500D01*
X113360000Y-41970000D02*
X113370000Y-41960000D01*
X107160000Y-130540000D02*
X107220000Y-130600000D01*
X86060000Y-113070000D02*
X86060000Y-117270000D01*
X113960000Y-61170000D02*
X118200000Y-56930000D01*
X125060000Y-113070000D02*
X125060000Y-113570000D01*
D17*
X67120000Y-116410000D02*
X67260000Y-116270000D01*
D16*
X95960000Y-58770000D02*
X97560000Y-58770000D01*
X78060000Y-115070000D02*
X75080000Y-118050000D01*
X107220000Y-122302500D02*
X107270000Y-122252500D01*
X80660000Y-113070000D02*
X80660000Y-113670000D01*
X82580000Y-118150000D02*
X82580000Y-119347500D01*
X131760000Y-61870000D02*
X131760000Y-60770000D01*
D18*
X123140000Y-39590000D02*
X120990000Y-39590000D01*
D16*
X85060000Y-116770000D02*
X84060000Y-117770000D01*
X78810000Y-47470000D02*
X74060000Y-47470000D01*
X133960000Y-61170000D02*
X134860000Y-60270000D01*
X96250000Y-47470000D02*
X96250000Y-39590000D01*
X112860000Y-61870000D02*
X112860000Y-60870000D01*
X81760000Y-113070000D02*
X81760000Y-114470000D01*
D17*
X70160000Y-66570000D02*
X139760000Y-66570000D01*
X152860000Y-59870000D02*
X154860000Y-61870000D01*
D16*
X86060000Y-43570000D02*
X86060000Y-39620000D01*
D17*
X149060000Y-56070000D02*
X139260000Y-65870000D01*
D16*
X67260000Y-103470000D02*
X62076275Y-103470000D01*
X88360000Y-60570000D02*
X86760000Y-58970000D01*
X120700000Y-56930000D02*
X120700000Y-55432500D01*
X63810000Y-56220000D02*
X64260000Y-56670000D01*
X100660000Y-113770000D02*
X96660000Y-117770000D01*
X75060000Y-58870000D02*
X76310000Y-57620000D01*
D17*
X62760000Y-68570000D02*
X62760000Y-70670000D01*
D18*
X154150000Y-114780000D02*
X155560000Y-113370000D01*
D17*
X144760000Y-110470000D02*
X73860000Y-110470000D01*
X150160000Y-43870000D02*
X145860000Y-39570000D01*
D16*
X146530000Y-124990000D02*
X146530000Y-122362500D01*
X87550000Y-129790000D02*
X87570000Y-129810000D01*
X130390000Y-59590000D02*
X129560000Y-60420000D01*
X135560000Y-41970000D02*
X135560000Y-39570000D01*
D17*
X154060000Y-92970000D02*
X153120000Y-93910000D01*
D16*
X93710000Y-52297500D02*
X93500000Y-52507500D01*
D17*
X151060000Y-43770000D02*
X151060000Y-58170000D01*
D16*
X65260000Y-56670000D02*
X69560000Y-60970000D01*
X63900000Y-49770000D02*
X63900000Y-52437500D01*
X139560000Y-113070000D02*
X139560000Y-113870000D01*
X80660000Y-113670000D02*
X80060000Y-114270000D01*
X136160000Y-61870000D02*
X138960000Y-61870000D01*
X90660000Y-58670000D02*
X88500000Y-56510000D01*
X81160000Y-115070000D02*
X78060000Y-115070000D01*
X96160000Y-116770000D02*
X93560000Y-116770000D01*
X63383725Y-76146275D02*
X61460000Y-76146275D01*
D17*
X138760000Y-63970000D02*
X67360000Y-63970000D01*
D16*
X107270000Y-117880000D02*
X107270000Y-119327500D01*
X99560000Y-113070000D02*
X99560000Y-113370000D01*
X67580000Y-118450000D02*
X67580000Y-119347500D01*
D18*
X98810000Y-39570000D02*
X98790000Y-39590000D01*
D16*
X83560000Y-44370000D02*
X83550000Y-44360000D01*
X91760000Y-57670000D02*
X91000000Y-56910000D01*
X71310000Y-57220000D02*
X71310000Y-55452500D01*
D18*
X131910000Y-122310000D02*
X131910000Y-124960000D01*
D16*
X110860000Y-39620000D02*
X110830000Y-39590000D01*
D17*
X148360000Y-55970000D02*
X139160000Y-65170000D01*
X70560000Y-111270000D02*
X70560000Y-111370000D01*
D16*
X92860000Y-57670000D02*
X93500000Y-57030000D01*
D17*
X73660000Y-109870000D02*
X67260000Y-116270000D01*
D16*
X134160000Y-127210000D02*
X138910000Y-127210000D01*
D17*
X148260000Y-104070000D02*
X148260000Y-106970000D01*
X153440000Y-98990000D02*
X151360000Y-98990000D01*
D16*
X60160000Y-69470000D02*
X61960000Y-69470000D01*
D17*
X150360000Y-44770000D02*
X150160000Y-44570000D01*
D16*
X94520000Y-122502500D02*
X94770000Y-122252500D01*
X99600000Y-125010000D02*
X99600000Y-122422500D01*
X125060000Y-113570000D02*
X126970000Y-115480000D01*
D17*
X61760000Y-107870000D02*
X63460000Y-106170000D01*
D16*
X86060000Y-39620000D02*
X86090000Y-39590000D01*
X82490000Y-135190000D02*
X82490000Y-131400000D01*
X113370000Y-41960000D02*
X113370000Y-39590000D01*
X68980000Y-52357500D02*
X68810000Y-52527500D01*
X86060000Y-117270000D02*
X85080000Y-118250000D01*
X143180000Y-52197500D02*
X142890000Y-52487500D01*
X111760000Y-59520000D02*
X113200000Y-58080000D01*
X110830000Y-52377500D02*
X110700000Y-52507500D01*
X123960000Y-114070000D02*
X124460000Y-114570000D01*
X69060000Y-62970000D02*
X68460000Y-62370000D01*
X70560000Y-111270000D02*
X70560000Y-98370000D01*
X93500000Y-57030000D02*
X93500000Y-55432500D01*
D18*
X58760000Y-52070000D02*
X58760000Y-49830000D01*
D16*
X123960000Y-113070000D02*
X123960000Y-114070000D01*
X102010000Y-132180000D02*
X102030000Y-132200000D01*
X70560000Y-98370000D02*
X63576275Y-91386275D01*
D17*
X61860000Y-124770000D02*
X62160000Y-124470000D01*
X153760000Y-59470000D02*
X155660000Y-61370000D01*
X65515000Y-115615000D02*
X65790000Y-115340000D01*
D16*
X126880000Y-131360000D02*
X126880000Y-135170000D01*
X107220000Y-125010000D02*
X107220000Y-122302500D01*
D17*
X150160000Y-44570000D02*
X150160000Y-43870000D01*
D16*
X97010000Y-59970000D02*
X99960000Y-59970000D01*
X104640000Y-131400000D02*
X104680000Y-131440000D01*
X71760000Y-60170000D02*
X71760000Y-61870000D01*
X130660000Y-61870000D02*
X130660000Y-60570000D01*
X147620000Y-76130000D02*
X151360000Y-76130000D01*
X72860000Y-61870000D02*
X72860000Y-58770000D01*
D17*
X64660000Y-118070000D02*
X66750000Y-115980000D01*
D16*
X143990000Y-124990000D02*
X143990000Y-122402500D01*
D17*
X65515000Y-115615000D02*
X69760000Y-111370000D01*
D16*
X91170000Y-49750000D02*
X91170000Y-52337500D01*
X70660000Y-60770000D02*
X66310000Y-56420000D01*
D17*
X62160000Y-124470000D02*
X62160000Y-116570000D01*
X57660000Y-69470000D02*
X57560000Y-69370000D01*
D16*
X136760000Y-119207500D02*
X136660000Y-119307500D01*
D18*
X57560000Y-98470000D02*
X57560000Y-69370000D01*
D16*
X138910000Y-122482500D02*
X139160000Y-122232500D01*
X99560000Y-111970000D02*
X94060000Y-111970000D01*
D17*
X61360000Y-123170000D02*
X61360000Y-116420000D01*
D16*
X66440000Y-41950000D02*
X66440000Y-39610000D01*
D17*
X149560000Y-45370000D02*
X149560000Y-47270000D01*
D16*
X93760000Y-45270000D02*
X93710000Y-45220000D01*
X80060000Y-114270000D02*
X76660000Y-114270000D01*
D17*
X74040000Y-111090000D02*
X145140000Y-111090000D01*
D16*
X94520000Y-125010000D02*
X94520000Y-122502500D01*
X120990000Y-52217500D02*
X120700000Y-52507500D01*
D17*
X60460000Y-107870000D02*
X61760000Y-107870000D01*
X153260000Y-91170000D02*
X153060000Y-91370000D01*
D16*
X148360000Y-81170000D02*
X151320000Y-81170000D01*
X61360000Y-39610000D02*
X61360000Y-41970000D01*
X151660000Y-118570000D02*
X151660000Y-119307500D01*
X59976275Y-104086275D02*
X61460000Y-104086275D01*
X68980000Y-41950000D02*
X68960000Y-41970000D01*
X145060000Y-113070000D02*
X145060000Y-113270000D01*
X93560000Y-116770000D02*
X92270000Y-118060000D01*
X151320000Y-81170000D02*
X151360000Y-81210000D01*
D18*
X59480000Y-101540000D02*
X59486275Y-101546275D01*
D17*
X67760000Y-64570000D02*
X138960000Y-64570000D01*
X62760000Y-70670000D02*
X62363725Y-71066275D01*
D16*
X140660000Y-114270000D02*
X139160000Y-115770000D01*
X102030000Y-135060000D02*
X102140000Y-135170000D01*
X74060000Y-47470000D02*
X74060000Y-39610000D01*
X84060000Y-116170000D02*
X83360000Y-116870000D01*
D17*
X146860000Y-61870000D02*
X146860000Y-65070000D01*
D18*
X87460000Y-122310000D02*
X87460000Y-124920000D01*
D16*
X136370000Y-122522500D02*
X136660000Y-122232500D01*
X109560000Y-61870000D02*
X109560000Y-59370000D01*
X134160000Y-117870000D02*
X134160000Y-119307500D01*
X76660000Y-114270000D02*
X72580000Y-118350000D01*
X112860000Y-60870000D02*
X115700000Y-58030000D01*
D17*
X64660000Y-128420000D02*
X64660000Y-118070000D01*
X148260000Y-106970000D02*
X144760000Y-110470000D01*
D16*
X82490000Y-122362500D02*
X82580000Y-122272500D01*
X93710000Y-49750000D02*
X93710000Y-52297500D01*
X74870000Y-122482500D02*
X75080000Y-122272500D01*
X96660000Y-117770000D02*
X95160000Y-117770000D01*
X121810000Y-132970000D02*
X121800000Y-132980000D01*
X103960000Y-113070000D02*
X103960000Y-115070000D01*
X76160000Y-61870000D02*
X76160000Y-60170000D01*
X91980000Y-122542500D02*
X92270000Y-122252500D01*
X85060000Y-113070000D02*
X85060000Y-116770000D01*
X115060000Y-61570000D02*
X115660000Y-60970000D01*
X61360000Y-49770000D02*
X61360000Y-52477500D01*
X137890000Y-58840000D02*
X137890000Y-55412500D01*
X81060000Y-45170000D02*
X81010000Y-45120000D01*
X61496275Y-86270000D02*
X61460000Y-86306275D01*
X141450000Y-124990000D02*
X141450000Y-122442500D01*
D17*
X153260000Y-69970000D02*
X153260000Y-91170000D01*
D16*
X64260000Y-56670000D02*
X65260000Y-56670000D01*
X89770000Y-127210000D02*
X94520000Y-127210000D01*
X76160000Y-60170000D02*
X78810000Y-57520000D01*
X116160000Y-61870000D02*
X118460000Y-61870000D01*
D18*
X134180000Y-135150000D02*
X136370000Y-135150000D01*
D16*
X107220000Y-130600000D02*
X107220000Y-135170000D01*
X87570000Y-129810000D02*
X87570000Y-135190000D01*
D18*
X154160000Y-105570000D02*
X152660000Y-104070000D01*
D17*
X148810000Y-58870000D02*
X146060000Y-61620000D01*
D16*
X87660000Y-57770000D02*
X86360000Y-57770000D01*
X71520000Y-45130000D02*
X71520000Y-39610000D01*
X115700000Y-58030000D02*
X115700000Y-55432500D01*
X86760000Y-58970000D02*
X85460000Y-58970000D01*
D18*
X145360000Y-39570000D02*
X143180000Y-39570000D01*
D16*
X65156275Y-96466275D02*
X61460000Y-96466275D01*
X75060000Y-61870000D02*
X75060000Y-58870000D01*
D17*
X151960000Y-58570000D02*
X150960000Y-59570000D01*
D16*
X111970000Y-118460000D02*
X111970000Y-119327500D01*
X88630000Y-49750000D02*
X88630000Y-52377500D01*
X81760000Y-114470000D02*
X81160000Y-115070000D01*
X99770000Y-117660000D02*
X99770000Y-119327500D01*
X110860000Y-42770000D02*
X110860000Y-39620000D01*
X64260000Y-83770000D02*
X61463725Y-83770000D01*
X131760000Y-60770000D02*
X133860000Y-58670000D01*
X96250000Y-52257500D02*
X96000000Y-52507500D01*
X111970000Y-122252500D02*
X111970000Y-127210000D01*
X125360000Y-49770000D02*
X125400000Y-49730000D01*
X121800000Y-132980000D02*
X121800000Y-135170000D01*
X74860000Y-113070000D02*
X70080000Y-117850000D01*
X143990000Y-132990000D02*
X143990000Y-135150000D01*
X86000000Y-57410000D02*
X86000000Y-55432500D01*
X68960000Y-100270000D02*
X65156275Y-96466275D01*
X115660000Y-60970000D02*
X116660000Y-60970000D01*
D17*
X64260000Y-108770000D02*
X64260000Y-105270000D01*
D16*
X116660000Y-60970000D02*
X120700000Y-56930000D01*
X66096275Y-99006275D02*
X61460000Y-99006275D01*
D17*
X65520000Y-127170000D02*
X65160000Y-126810000D01*
D16*
X151610000Y-132850000D02*
X151610000Y-135150000D01*
X91980000Y-125010000D02*
X91980000Y-122542500D01*
X74870000Y-128850000D02*
X74870000Y-135190000D01*
X69560000Y-62970000D02*
X69060000Y-62970000D01*
X59260000Y-70370000D02*
X60160000Y-69470000D01*
X82960000Y-117770000D02*
X82580000Y-118150000D01*
X92270000Y-118060000D02*
X92270000Y-119327500D01*
X140390000Y-57540000D02*
X140390000Y-55412500D01*
X66460000Y-41970000D02*
X66440000Y-41950000D01*
D17*
X62363725Y-71066275D02*
X61460000Y-71066275D01*
X143960000Y-109270000D02*
X73460000Y-109270000D01*
D16*
X149230000Y-88830000D02*
X151360000Y-88830000D01*
X63900000Y-52437500D02*
X63810000Y-52527500D01*
X97060000Y-129840000D02*
X97090000Y-129810000D01*
X126880000Y-122342500D02*
X126970000Y-122252500D01*
D17*
X65160000Y-118370000D02*
X67260000Y-116270000D01*
D16*
X146530000Y-122362500D02*
X146660000Y-122232500D01*
X111760000Y-61870000D02*
X111760000Y-59520000D01*
X84060000Y-113170000D02*
X84060000Y-116170000D01*
X68960000Y-110770000D02*
X68960000Y-100270000D01*
D18*
X131910000Y-124960000D02*
X131960000Y-125010000D01*
D17*
X63160000Y-117170000D02*
X66560000Y-113770000D01*
D18*
X154150000Y-122310000D02*
X154150000Y-114780000D01*
D16*
X108290000Y-49750000D02*
X108290000Y-52417500D01*
X143990000Y-122402500D02*
X144160000Y-122232500D01*
X78810000Y-57520000D02*
X78810000Y-55452500D01*
D17*
X146860000Y-65070000D02*
X150160000Y-68370000D01*
D16*
X93960000Y-61870000D02*
X93960000Y-58670000D01*
X74060000Y-111970000D02*
X67580000Y-118450000D01*
X146280000Y-73590000D02*
X151360000Y-73590000D01*
D18*
X153750000Y-101530000D02*
X151360000Y-101530000D01*
D16*
X96160000Y-60820000D02*
X97010000Y-59970000D01*
X79560000Y-113070000D02*
X74860000Y-113070000D01*
X68460000Y-61470000D02*
X64760000Y-57770000D01*
X98500000Y-57830000D02*
X98500000Y-55432500D01*
D17*
X153120000Y-93910000D02*
X151360000Y-93910000D01*
D16*
X102270000Y-116760000D02*
X102270000Y-119327500D01*
X104680000Y-122342500D02*
X104770000Y-122252500D01*
D17*
X145140000Y-111090000D02*
X149260000Y-106970000D01*
D16*
X138560000Y-113470000D02*
X134160000Y-117870000D01*
D17*
X63460000Y-68870000D02*
X67760000Y-64570000D01*
D16*
X79460000Y-115770000D02*
X77580000Y-117650000D01*
X135060000Y-61870000D02*
X135060000Y-61370000D01*
X57760000Y-100170000D02*
X57260000Y-100670000D01*
D18*
X59260000Y-100170000D02*
X57560000Y-98470000D01*
D17*
X66700000Y-123960000D02*
X66160000Y-123420000D01*
D16*
X127940000Y-49730000D02*
X127940000Y-52437500D01*
X118460000Y-61870000D02*
X123200000Y-57130000D01*
D17*
X139160000Y-65170000D02*
X68160000Y-65170000D01*
D16*
X105750000Y-44360000D02*
X105750000Y-39590000D01*
X61310000Y-56320000D02*
X61310000Y-55452500D01*
X59260000Y-103370000D02*
X59976275Y-104086275D01*
X97560000Y-58770000D02*
X98500000Y-57830000D01*
X151620000Y-132840000D02*
X151610000Y-132850000D01*
X138100000Y-52277500D02*
X137890000Y-52487500D01*
X105700000Y-57410000D02*
X105700000Y-55432500D01*
X64316275Y-93926275D02*
X61460000Y-93926275D01*
X114180000Y-125010000D02*
X114180000Y-122542500D01*
X143180000Y-49730000D02*
X143180000Y-52197500D01*
X132860000Y-61870000D02*
X132860000Y-60970000D01*
X147260000Y-78650000D02*
X147280000Y-78630000D01*
D17*
X66060000Y-113470000D02*
X66060000Y-109570000D01*
D16*
X63460000Y-81170000D02*
X63403725Y-81226275D01*
X148260000Y-83770000D02*
X148280000Y-83750000D01*
X85030000Y-130560000D02*
X85030000Y-135190000D01*
X121760000Y-113070000D02*
X121760000Y-113770000D01*
D18*
X57560000Y-69370000D02*
X57560000Y-53270000D01*
D16*
X142860000Y-113070000D02*
X142860000Y-114270000D01*
D17*
X62860000Y-127970000D02*
X63160000Y-127670000D01*
X152360000Y-69070000D02*
X153260000Y-69970000D01*
X145860000Y-39570000D02*
X145360000Y-39570000D01*
D16*
X115910000Y-49750000D02*
X115910000Y-52297500D01*
X58760000Y-49830000D02*
X58820000Y-49770000D01*
X113200000Y-58080000D02*
X113200000Y-55432500D01*
X75080000Y-118050000D02*
X75080000Y-119347500D01*
X63460000Y-88870000D02*
X61483725Y-88870000D01*
X138100000Y-44270000D02*
X138100000Y-39570000D01*
D18*
X78720000Y-39610000D02*
X78760000Y-39570000D01*
D16*
X124340000Y-125010000D02*
X124340000Y-122382500D01*
X108200000Y-58010000D02*
X108200000Y-55432500D01*
X103160000Y-45170000D02*
X103210000Y-45120000D01*
X126160000Y-113070000D02*
X129470000Y-116380000D01*
X120990000Y-49750000D02*
X120990000Y-52217500D01*
D17*
X58160000Y-110170000D02*
X60460000Y-107870000D01*
D16*
X128660000Y-57170000D02*
X127890000Y-56400000D01*
D17*
X155660000Y-96770000D02*
X153440000Y-98990000D01*
D16*
X109560000Y-59370000D02*
X108200000Y-58010000D01*
X62760000Y-57770000D02*
X61310000Y-56320000D01*
D17*
X146260000Y-49570000D02*
X146960000Y-50270000D01*
D16*
X89060000Y-62970000D02*
X88360000Y-62270000D01*
D17*
X146060000Y-65370000D02*
X149760000Y-69070000D01*
X139760000Y-66570000D02*
X150360000Y-55970000D01*
D16*
X139160000Y-111970000D02*
X138560000Y-112570000D01*
X102140000Y-122382500D02*
X102270000Y-122252500D01*
X101000000Y-52507500D02*
X101000000Y-47470000D01*
X79950000Y-122402500D02*
X80080000Y-122272500D01*
X104680000Y-131440000D02*
X104680000Y-135170000D01*
D18*
X57370000Y-127180000D02*
X57370000Y-103650000D01*
D16*
X121760000Y-113770000D02*
X119470000Y-116060000D01*
X148280000Y-83750000D02*
X151360000Y-83750000D01*
X138100000Y-49730000D02*
X138100000Y-52277500D01*
X146530000Y-132920000D02*
X146530000Y-135150000D01*
D17*
X65030000Y-128790000D02*
X64660000Y-128420000D01*
X148360000Y-47170000D02*
X148360000Y-55970000D01*
D16*
X83960000Y-113070000D02*
X84060000Y-113170000D01*
X76310000Y-57620000D02*
X76310000Y-55452500D01*
X124460000Y-114570000D02*
X124460000Y-119317500D01*
X86360000Y-57770000D02*
X86000000Y-57410000D01*
X77410000Y-132980000D02*
X77410000Y-135190000D01*
D17*
X68460000Y-65870000D02*
X65060000Y-69270000D01*
D16*
X126880000Y-125010000D02*
X126880000Y-122342500D01*
D18*
X59486275Y-101546275D02*
X61460000Y-101546275D01*
D16*
X93960000Y-58670000D02*
X96000000Y-56630000D01*
X99600000Y-122422500D02*
X99770000Y-122252500D01*
X105060000Y-115670000D02*
X104770000Y-115960000D01*
X142860000Y-114270000D02*
X144160000Y-115570000D01*
D17*
X149260000Y-106970000D02*
X149260000Y-104070000D01*
X65660000Y-118670000D02*
X67690000Y-116640000D01*
D16*
X102140000Y-125010000D02*
X102140000Y-122382500D01*
D17*
X58160000Y-113220000D02*
X58160000Y-110170000D01*
D16*
X130480000Y-43550000D02*
X130460000Y-43570000D01*
X65060000Y-78670000D02*
X61476275Y-78670000D01*
X81010000Y-45120000D02*
X81010000Y-39590000D01*
X72330000Y-122522500D02*
X72580000Y-122272500D01*
D17*
X146260000Y-106970000D02*
X143960000Y-109270000D01*
D16*
X149070000Y-124990000D02*
X149070000Y-122322500D01*
X99560000Y-113370000D02*
X96160000Y-116770000D01*
D17*
X146960000Y-50270000D02*
X146960000Y-55770000D01*
D16*
X89760000Y-116270000D02*
X89760000Y-119317500D01*
X104770000Y-115960000D02*
X104770000Y-119327500D01*
X99960000Y-59970000D02*
X101000000Y-58930000D01*
X145390000Y-47370000D02*
X140640000Y-47370000D01*
X61476275Y-78670000D02*
X61460000Y-78686275D01*
X72580000Y-118350000D02*
X72580000Y-119347500D01*
X77410000Y-125030000D02*
X77410000Y-122442500D01*
D17*
X155660000Y-61370000D02*
X155660000Y-96770000D01*
D16*
X129420000Y-130530000D02*
X129420000Y-135170000D01*
X68460000Y-62370000D02*
X68460000Y-61470000D01*
X143980000Y-132980000D02*
X143990000Y-132990000D01*
D17*
X150360000Y-58870000D02*
X148810000Y-58870000D01*
D16*
X76600000Y-52237500D02*
X76310000Y-52527500D01*
X126970000Y-115480000D02*
X126970000Y-119327500D01*
X130480000Y-52397500D02*
X130390000Y-52487500D01*
X112460000Y-117970000D02*
X111970000Y-118460000D01*
X140640000Y-49730000D02*
X140640000Y-52237500D01*
X141450000Y-122442500D02*
X141660000Y-122232500D01*
X103960000Y-115070000D02*
X102270000Y-116760000D01*
X88630000Y-52377500D02*
X88500000Y-52507500D01*
D17*
X70560000Y-111370000D02*
X64160000Y-117770000D01*
D16*
X146160000Y-113070000D02*
X151660000Y-118570000D01*
X119260000Y-129540000D02*
X119260000Y-135170000D01*
D17*
X153080000Y-96450000D02*
X151360000Y-96450000D01*
D16*
X145060000Y-113270000D02*
X149160000Y-117370000D01*
X95060000Y-61870000D02*
X95060000Y-59670000D01*
X83550000Y-52457500D02*
X83500000Y-52507500D01*
D18*
X154160000Y-108570000D02*
X154160000Y-105570000D01*
D16*
X140660000Y-113070000D02*
X140660000Y-114270000D01*
X95160000Y-117770000D02*
X94770000Y-118160000D01*
X123200000Y-47470000D02*
X118450000Y-47470000D01*
X132890000Y-58340000D02*
X132890000Y-55412500D01*
X58860000Y-41970000D02*
X58860000Y-39650000D01*
D18*
X103160000Y-52070000D02*
X103160000Y-49800000D01*
D16*
X115860000Y-45170000D02*
X115910000Y-45120000D01*
D17*
X65560000Y-110070000D02*
X64260000Y-108770000D01*
D16*
X85030000Y-125030000D02*
X85030000Y-122322500D01*
X98790000Y-52217500D02*
X98500000Y-52507500D01*
X149160000Y-117370000D02*
X149160000Y-119307500D01*
X74870000Y-125030000D02*
X74870000Y-122482500D01*
X130480000Y-49730000D02*
X130480000Y-52397500D01*
X80080000Y-117950000D02*
X80080000Y-119347500D01*
X83550000Y-44360000D02*
X83550000Y-39590000D01*
D17*
X139260000Y-65870000D02*
X68460000Y-65870000D01*
X63660000Y-117470000D02*
X63660000Y-129470000D01*
D16*
X72330000Y-127210000D02*
X72330000Y-135190000D01*
D17*
X148660000Y-46870000D02*
X148360000Y-47170000D01*
D16*
X68980000Y-49770000D02*
X68980000Y-52357500D01*
X133020000Y-52357500D02*
X132890000Y-52487500D01*
X138560000Y-112570000D02*
X138560000Y-113470000D01*
X133860000Y-58670000D02*
X134960000Y-58670000D01*
X61360000Y-52477500D02*
X61310000Y-52527500D01*
X89760000Y-119317500D02*
X89770000Y-119327500D01*
X119260000Y-122462500D02*
X119470000Y-122252500D01*
D17*
X153760000Y-41670000D02*
X153760000Y-59470000D01*
D16*
X149160000Y-86270000D02*
X151340000Y-86270000D01*
X92860000Y-61870000D02*
X92860000Y-57670000D01*
X134160000Y-122232500D02*
X134160000Y-127210000D01*
D18*
X69770000Y-135170000D02*
X69790000Y-135190000D01*
D16*
X64760000Y-57770000D02*
X62760000Y-57770000D01*
X104680000Y-125010000D02*
X104680000Y-122342500D01*
X97060000Y-135170000D02*
X97060000Y-129840000D01*
X154150000Y-132780000D02*
X154150000Y-135150000D01*
X123200000Y-57130000D02*
X123200000Y-55432500D01*
D17*
X62360000Y-126370000D02*
X62660000Y-126070000D01*
D16*
X95060000Y-59670000D02*
X95960000Y-58770000D01*
X94770000Y-118160000D02*
X94770000Y-119327500D01*
X69560000Y-60970000D02*
X69560000Y-61870000D01*
X86090000Y-52417500D02*
X86000000Y-52507500D01*
X105750000Y-52457500D02*
X105700000Y-52507500D01*
X128660000Y-62770000D02*
X128660000Y-57170000D01*
X99600000Y-132990000D02*
X99600000Y-135170000D01*
X67360000Y-112370000D02*
X68960000Y-110770000D01*
X138960000Y-61870000D02*
X145390000Y-55440000D01*
X99570000Y-132960000D02*
X99600000Y-132990000D01*
D17*
X62160000Y-116570000D02*
X65560000Y-113170000D01*
D16*
X97060000Y-122462500D02*
X97270000Y-122252500D01*
X78810000Y-52527500D02*
X78810000Y-47470000D01*
X146780000Y-71050000D02*
X151360000Y-71050000D01*
X151610000Y-124990000D02*
X151610000Y-122282500D01*
X79960000Y-132170000D02*
X79950000Y-132180000D01*
X77580000Y-117650000D02*
X77580000Y-119347500D01*
X116720000Y-127210000D02*
X116720000Y-135170000D01*
X108260000Y-43570000D02*
X108290000Y-43540000D01*
D17*
X152960000Y-68370000D02*
X154060000Y-69470000D01*
D16*
X83360000Y-116870000D02*
X81160000Y-116870000D01*
X105760000Y-44370000D02*
X105750000Y-44360000D01*
D18*
X57370000Y-103650000D02*
X59480000Y-101540000D01*
D16*
X101760000Y-114070000D02*
X97270000Y-118560000D01*
X82360000Y-115770000D02*
X79460000Y-115770000D01*
X63460000Y-86270000D02*
X61496275Y-86270000D01*
X57260000Y-103540000D02*
X57370000Y-103650000D01*
D18*
X134160000Y-135170000D02*
X134180000Y-135150000D01*
X67660000Y-135170000D02*
X65360000Y-135170000D01*
D16*
X133020000Y-49730000D02*
X133020000Y-52357500D01*
X74060000Y-52277500D02*
X73810000Y-52527500D01*
X59260000Y-98670000D02*
X59260000Y-70370000D01*
X65823725Y-73606275D02*
X61460000Y-73606275D01*
X142890000Y-56540000D02*
X142890000Y-55412500D01*
X127940000Y-52437500D02*
X127890000Y-52487500D01*
D17*
X62660000Y-116870000D02*
X66060000Y-113470000D01*
D16*
X108290000Y-52417500D02*
X108200000Y-52507500D01*
X97270000Y-118560000D02*
X97270000Y-119327500D01*
D17*
X147260000Y-104070000D02*
X147260000Y-106970000D01*
D16*
X63576275Y-91386275D02*
X61460000Y-91386275D01*
X119560000Y-113070000D02*
X114470000Y-118160000D01*
X119560000Y-111970000D02*
X119060000Y-111970000D01*
X101760000Y-113070000D02*
X101760000Y-114070000D01*
X113960000Y-61870000D02*
X113960000Y-61170000D01*
X124240000Y-135070000D02*
X124340000Y-135170000D01*
X154160000Y-132770000D02*
X154150000Y-132780000D01*
D18*
X155560000Y-113370000D02*
X155560000Y-109970000D01*
D16*
X146760000Y-71070000D02*
X146780000Y-71050000D01*
D17*
X149060000Y-47770000D02*
X149060000Y-56070000D01*
D16*
X146660000Y-116570000D02*
X146660000Y-119307500D01*
X105060000Y-113070000D02*
X105060000Y-115670000D01*
D17*
X68160000Y-65170000D02*
X64260000Y-69070000D01*
D16*
X70080000Y-117850000D02*
X70080000Y-119347500D01*
D17*
X66160000Y-118970000D02*
X74040000Y-111090000D01*
D16*
X66440000Y-52397500D02*
X66310000Y-52527500D01*
X131980000Y-129640000D02*
X131960000Y-129660000D01*
X114180000Y-122542500D02*
X114470000Y-122252500D01*
D17*
X65430000Y-130540000D02*
X66360000Y-130540000D01*
X64160000Y-117770000D02*
X64160000Y-129270000D01*
D16*
X83500000Y-57010000D02*
X83500000Y-55432500D01*
X151340000Y-86270000D02*
X151360000Y-86290000D01*
X110660000Y-61870000D02*
X110660000Y-55472500D01*
X118450000Y-47470000D02*
X118450000Y-39590000D01*
X143960000Y-113070000D02*
X143960000Y-113870000D01*
D17*
X66070000Y-125610000D02*
X65660000Y-125200000D01*
X154860000Y-94670000D02*
X153080000Y-96450000D01*
D16*
X115910000Y-52297500D02*
X115700000Y-52507500D01*
D17*
X65060000Y-69270000D02*
X65060000Y-72670000D01*
X61360000Y-116420000D02*
X58160000Y-113220000D01*
D16*
X119060000Y-111970000D02*
X118360000Y-112670000D01*
X68810000Y-57220000D02*
X71760000Y-60170000D01*
X132860000Y-60970000D02*
X134360000Y-59470000D01*
X71520000Y-52317500D02*
X71310000Y-52527500D01*
D17*
X67260000Y-69470000D02*
X70160000Y-66570000D01*
X149760000Y-69070000D02*
X152360000Y-69070000D01*
X65160000Y-126810000D02*
X65160000Y-118370000D01*
D16*
X131960000Y-129660000D02*
X131960000Y-135170000D01*
X149070000Y-132920000D02*
X149070000Y-135150000D01*
X113370000Y-52337500D02*
X113200000Y-52507500D01*
X65860000Y-73570000D02*
X65823725Y-73606275D01*
X108460000Y-62370000D02*
X108460000Y-60170000D01*
X69790000Y-122562500D02*
X70080000Y-122272500D01*
X141760000Y-113070000D02*
X141760000Y-119207500D01*
X127860000Y-44370000D02*
X127940000Y-44290000D01*
X129560000Y-62970000D02*
X128860000Y-62970000D01*
D18*
X125360000Y-52070000D02*
X125360000Y-49770000D01*
D16*
X122860000Y-113070000D02*
X122860000Y-114070000D01*
D18*
X123160000Y-39570000D02*
X123140000Y-39590000D01*
D17*
X66160000Y-123420000D02*
X66160000Y-118970000D01*
D16*
X138360000Y-61070000D02*
X142890000Y-56540000D01*
X133960000Y-61870000D02*
X133960000Y-61170000D01*
X63403725Y-81226275D02*
X61460000Y-81226275D01*
X113370000Y-49750000D02*
X113370000Y-52337500D01*
X88660000Y-39620000D02*
X88630000Y-39590000D01*
D18*
X76600000Y-39610000D02*
X78720000Y-39610000D01*
D17*
X147260000Y-106970000D02*
X144360000Y-109870000D01*
D16*
X111970000Y-127210000D02*
X116720000Y-127210000D01*
X70660000Y-61870000D02*
X70660000Y-60770000D01*
X135560000Y-52317500D02*
X135390000Y-52487500D01*
X67360000Y-110570000D02*
X68260000Y-109670000D01*
X118360000Y-113070000D02*
X113460000Y-117970000D01*
X91160000Y-39600000D02*
X91170000Y-39590000D01*
X130480000Y-39570000D02*
X130480000Y-43550000D01*
X138910000Y-127210000D02*
X138910000Y-135150000D01*
D18*
X67660000Y-135170000D02*
X69770000Y-135170000D01*
D16*
X101000000Y-47470000D02*
X96250000Y-47470000D01*
D17*
X66060000Y-109570000D02*
X65060000Y-108570000D01*
D16*
X79950000Y-132180000D02*
X79950000Y-135190000D01*
X96250000Y-49750000D02*
X96250000Y-52257500D01*
X71560000Y-45170000D02*
X71520000Y-45130000D01*
X129560000Y-60420000D02*
X129560000Y-61870000D01*
D17*
X144360000Y-109870000D02*
X73660000Y-109870000D01*
D16*
X89560000Y-61870000D02*
X89560000Y-59670000D01*
X69760000Y-111270000D02*
X69760000Y-99370000D01*
X147560000Y-76070000D02*
X147620000Y-76130000D01*
X85030000Y-122322500D02*
X85080000Y-122272500D01*
X58860000Y-39650000D02*
X58820000Y-39610000D01*
X123200000Y-52507500D02*
X123200000Y-47470000D01*
X79950000Y-125030000D02*
X79950000Y-122402500D01*
D18*
X111960000Y-135170000D02*
X114180000Y-135170000D01*
D17*
X66560000Y-113770000D02*
X66560000Y-109070000D01*
D16*
X119260000Y-125010000D02*
X119260000Y-122462500D01*
X89560000Y-59670000D02*
X87660000Y-57770000D01*
X121970000Y-114960000D02*
X121970000Y-119327500D01*
D17*
X149160000Y-59570000D02*
X146860000Y-61870000D01*
D16*
X84060000Y-117770000D02*
X82960000Y-117770000D01*
X132960000Y-42770000D02*
X132960000Y-39630000D01*
X109760000Y-135170000D02*
X109760000Y-129640000D01*
D18*
X89760000Y-135170000D02*
X91980000Y-135170000D01*
X87460000Y-124920000D02*
X87570000Y-125030000D01*
D16*
X96160000Y-61870000D02*
X96160000Y-60820000D01*
X124460000Y-119317500D02*
X124470000Y-119327500D01*
X116720000Y-125010000D02*
X116720000Y-122502500D01*
D17*
X153060000Y-91370000D02*
X151360000Y-91370000D01*
D16*
X120660000Y-113570000D02*
X116970000Y-117260000D01*
X137660000Y-60270000D02*
X140390000Y-57540000D01*
X121800000Y-122422500D02*
X121970000Y-122252500D01*
X119470000Y-116060000D02*
X119470000Y-119327500D01*
X141450000Y-129810000D02*
X141450000Y-135150000D01*
X63900000Y-41930000D02*
X63900000Y-39610000D01*
X89770000Y-122252500D02*
X89770000Y-127210000D01*
X74060000Y-49770000D02*
X74060000Y-52277500D01*
X130390000Y-55412500D02*
X130390000Y-59590000D01*
X102860000Y-114570000D02*
X99770000Y-117660000D01*
X109060000Y-62970000D02*
X108460000Y-62370000D01*
D17*
X73860000Y-110470000D02*
X67680000Y-116650000D01*
D16*
X127890000Y-56400000D02*
X127890000Y-55412500D01*
X129470000Y-116380000D02*
X129470000Y-119327500D01*
X88500000Y-56510000D02*
X88500000Y-55432500D01*
X125400000Y-45130000D02*
X125400000Y-39570000D01*
X79560000Y-111970000D02*
X74060000Y-111970000D01*
D17*
X67360000Y-63970000D02*
X62760000Y-68570000D01*
D16*
X73810000Y-61720000D02*
X73960000Y-61870000D01*
D17*
X62660000Y-126070000D02*
X62660000Y-116870000D01*
D16*
X82860000Y-113070000D02*
X82860000Y-115270000D01*
X151610000Y-122282500D02*
X151660000Y-122232500D01*
X59260000Y-103170000D02*
X59260000Y-103370000D01*
D17*
X154860000Y-61870000D02*
X154860000Y-94670000D01*
D16*
X88360000Y-62270000D02*
X88360000Y-60570000D01*
D17*
X64260000Y-69070000D02*
X64260000Y-71870000D01*
D16*
X135060000Y-61370000D02*
X135360000Y-61070000D01*
D17*
X63460000Y-106170000D02*
X63460000Y-104470000D01*
D16*
X85460000Y-58970000D02*
X83500000Y-57010000D01*
X134960000Y-58670000D02*
X135390000Y-58240000D01*
D17*
X65660000Y-125200000D02*
X65660000Y-118670000D01*
X66560000Y-109070000D02*
X65860000Y-108370000D01*
D16*
X113460000Y-117970000D02*
X112460000Y-117970000D01*
X118450000Y-52257500D02*
X118200000Y-52507500D01*
X76600000Y-49770000D02*
X76600000Y-52237500D01*
X109760000Y-129640000D02*
X109770000Y-129630000D01*
D17*
X146960000Y-55770000D02*
X138760000Y-63970000D01*
D16*
X115910000Y-45120000D02*
X115910000Y-39590000D01*
X69790000Y-125030000D02*
X69790000Y-122562500D01*
X82490000Y-131400000D02*
X82510000Y-131380000D01*
X151320000Y-78630000D02*
X151360000Y-78670000D01*
X116720000Y-122502500D02*
X116970000Y-122252500D01*
X128860000Y-62970000D02*
X128660000Y-62770000D01*
X68980000Y-39610000D02*
X68980000Y-41950000D01*
X86090000Y-49750000D02*
X86090000Y-52417500D01*
D17*
X63460000Y-72670000D02*
X63460000Y-68870000D01*
D16*
X141760000Y-119207500D02*
X141660000Y-119307500D01*
X81160000Y-116870000D02*
X80080000Y-117950000D01*
X83550000Y-49750000D02*
X83550000Y-52457500D01*
X118450000Y-49750000D02*
X118450000Y-52257500D01*
D17*
X151060000Y-58170000D02*
X150360000Y-58870000D01*
D16*
X145390000Y-52487500D02*
X145390000Y-47370000D01*
X63860000Y-41970000D02*
X63900000Y-41930000D01*
X68260000Y-109670000D02*
X68260000Y-101170000D01*
D18*
X65360000Y-135170000D02*
X57370000Y-127180000D01*
D16*
X124230000Y-132170000D02*
X124240000Y-132180000D01*
X82490000Y-125030000D02*
X82490000Y-122362500D01*
D17*
X138960000Y-64570000D02*
X147660000Y-55870000D01*
D16*
X130660000Y-60570000D02*
X132890000Y-58340000D01*
D18*
X154150000Y-124990000D02*
X154150000Y-122310000D01*
D16*
X139160000Y-115770000D02*
X139160000Y-119307500D01*
D18*
X109660000Y-122310000D02*
X109660000Y-124910000D01*
D16*
X118360000Y-112670000D02*
X118360000Y-113070000D01*
X119280000Y-129520000D02*
X119260000Y-129540000D01*
X122860000Y-114070000D02*
X121970000Y-114960000D01*
X140640000Y-47370000D02*
X140640000Y-39570000D01*
D17*
X150160000Y-68370000D02*
X152960000Y-68370000D01*
D16*
X89560000Y-62970000D02*
X89060000Y-62970000D01*
X94060000Y-111970000D02*
X89760000Y-116270000D01*
X132960000Y-39630000D02*
X133020000Y-39570000D01*
X108290000Y-43540000D02*
X108290000Y-39590000D01*
X137260000Y-59470000D02*
X137890000Y-58840000D01*
X73810000Y-55452500D02*
X73810000Y-61720000D01*
D17*
X64160000Y-129270000D02*
X65430000Y-130540000D01*
D16*
X110830000Y-49750000D02*
X110830000Y-52377500D01*
X124240000Y-132180000D02*
X124240000Y-135070000D01*
X94520000Y-127210000D02*
X94520000Y-135170000D01*
X68810000Y-55452500D02*
X68810000Y-57220000D01*
X68260000Y-101170000D02*
X66096275Y-99006275D01*
X144160000Y-115570000D02*
X144160000Y-119307500D01*
X125360000Y-45170000D02*
X125400000Y-45130000D01*
X93710000Y-45220000D02*
X93710000Y-39590000D01*
X134860000Y-60270000D02*
X137660000Y-60270000D01*
D18*
X155560000Y-109970000D02*
X154160000Y-108570000D01*
D16*
X66310000Y-56420000D02*
X66310000Y-55452500D01*
D18*
X57560000Y-53270000D02*
X58760000Y-52070000D01*
D16*
X69760000Y-99370000D02*
X64316275Y-93926275D01*
X138240000Y-44410000D02*
X138100000Y-44270000D01*
X135360000Y-61070000D02*
X138360000Y-61070000D01*
D17*
X146060000Y-61620000D02*
X146060000Y-65370000D01*
D16*
X143960000Y-113870000D02*
X146660000Y-116570000D01*
D17*
X73460000Y-109270000D02*
X66720000Y-116010000D01*
D16*
X139560000Y-113870000D02*
X136760000Y-116670000D01*
X146260000Y-73570000D02*
X146280000Y-73590000D01*
X101000000Y-58930000D02*
X101000000Y-55432500D01*
X62076275Y-103470000D02*
X61460000Y-104086275D01*
X149070000Y-122322500D02*
X149160000Y-122232500D01*
X139560000Y-111970000D02*
X139160000Y-111970000D01*
X90660000Y-61870000D02*
X90660000Y-58670000D01*
D18*
X100860000Y-39570000D02*
X98810000Y-39570000D01*
D17*
X63160000Y-127670000D02*
X63160000Y-117170000D01*
D16*
X91160000Y-41970000D02*
X91160000Y-39600000D01*
%TD*%
M02*
