%TF.GenerationSoftware,KiCad,Pcbnew,(6.0.5)*%
%TF.CreationDate,2022-10-16T21:39:42+03:00*%
%TF.ProjectId,LED_MATRIX,4c45445f-4d41-4545-9249-582e6b696361,rev?*%
%TF.SameCoordinates,Original*%
%TF.FileFunction,Legend,Bot*%
%TF.FilePolarity,Positive*%
%FSLAX46Y46*%
G04 Gerber Fmt 4.6, Leading zero omitted, Abs format (unit mm)*
G04 Created by KiCad (PCBNEW (6.0.5)) date 2022-10-16 21:39:42*
%MOMM*%
%LPD*%
G01*
G04 APERTURE LIST*
%ADD10C,0.200000*%
%ADD11C,0.120000*%
G04 APERTURE END LIST*
D10*
X154550000Y-63470000D02*
G75*
G03*
X154550000Y-63470000I-3500000J0D01*
G01*
X65350000Y-63470000D02*
G75*
G03*
X65350000Y-63470000I-3500000J0D01*
G01*
X154590000Y-111690000D02*
G75*
G03*
X154590000Y-111690000I-3500000J0D01*
G01*
X65360000Y-111670000D02*
G75*
G03*
X65360000Y-111670000I-3500000J0D01*
G01*
D11*
%TO.C,REF\u002A\u002A*%
X70860000Y-73870000D02*
X70860000Y-77070000D01*
X67260000Y-77070000D02*
X70860000Y-77070000D01*
X67260000Y-73870000D02*
X70860000Y-73870000D01*
X120860000Y-65870000D02*
X120860000Y-69070000D01*
X117260000Y-65870000D02*
X120860000Y-65870000D01*
X117260000Y-69070000D02*
X120860000Y-69070000D01*
X97285000Y-113870000D02*
X100885000Y-113870000D01*
X97285000Y-117070000D02*
X100885000Y-117070000D01*
X100885000Y-113870000D02*
X100885000Y-117070000D01*
X117260000Y-109070000D02*
X120860000Y-109070000D01*
X117260000Y-105870000D02*
X120860000Y-105870000D01*
X120860000Y-105870000D02*
X120860000Y-109070000D01*
X80860000Y-97870000D02*
X80860000Y-101070000D01*
X77260000Y-97870000D02*
X80860000Y-97870000D01*
X77260000Y-101070000D02*
X80860000Y-101070000D01*
X97285000Y-73870000D02*
X100885000Y-73870000D01*
X100885000Y-73870000D02*
X100885000Y-77070000D01*
X97285000Y-77070000D02*
X100885000Y-77070000D01*
X67260000Y-101070000D02*
X70860000Y-101070000D01*
X70860000Y-97870000D02*
X70860000Y-101070000D01*
X67260000Y-97870000D02*
X70860000Y-97870000D01*
X80860000Y-81870000D02*
X80860000Y-85070000D01*
X77260000Y-81870000D02*
X80860000Y-81870000D01*
X77260000Y-85070000D02*
X80860000Y-85070000D01*
X87235000Y-97870000D02*
X90835000Y-97870000D01*
X90835000Y-97870000D02*
X90835000Y-101070000D01*
X87235000Y-101070000D02*
X90835000Y-101070000D01*
X97285000Y-57870000D02*
X100885000Y-57870000D01*
X97285000Y-61070000D02*
X100885000Y-61070000D01*
X100885000Y-57870000D02*
X100885000Y-61070000D01*
X140885000Y-105870000D02*
X140885000Y-109070000D01*
X137285000Y-109070000D02*
X140885000Y-109070000D01*
X137285000Y-105870000D02*
X140885000Y-105870000D01*
X110860000Y-113870000D02*
X110860000Y-117070000D01*
X107260000Y-117070000D02*
X110860000Y-117070000D01*
X107260000Y-113870000D02*
X110860000Y-113870000D01*
X107260000Y-61070000D02*
X110860000Y-61070000D01*
X110860000Y-57870000D02*
X110860000Y-61070000D01*
X107260000Y-57870000D02*
X110860000Y-57870000D01*
X100885000Y-105870000D02*
X100885000Y-109070000D01*
X97285000Y-105870000D02*
X100885000Y-105870000D01*
X97285000Y-109070000D02*
X100885000Y-109070000D01*
X67260000Y-57870000D02*
X70860000Y-57870000D01*
X70860000Y-57870000D02*
X70860000Y-61070000D01*
X67260000Y-61070000D02*
X70860000Y-61070000D01*
X97285000Y-65870000D02*
X100885000Y-65870000D01*
X100885000Y-65870000D02*
X100885000Y-69070000D01*
X97285000Y-69070000D02*
X100885000Y-69070000D01*
X107260000Y-101070000D02*
X110860000Y-101070000D01*
X110860000Y-97870000D02*
X110860000Y-101070000D01*
X107260000Y-97870000D02*
X110860000Y-97870000D01*
X90835000Y-65870000D02*
X90835000Y-69070000D01*
X87235000Y-69070000D02*
X90835000Y-69070000D01*
X87235000Y-65870000D02*
X90835000Y-65870000D01*
X90835000Y-57870000D02*
X90835000Y-61070000D01*
X87235000Y-57870000D02*
X90835000Y-57870000D01*
X87235000Y-61070000D02*
X90835000Y-61070000D01*
X97285000Y-97870000D02*
X100885000Y-97870000D01*
X97285000Y-101070000D02*
X100885000Y-101070000D01*
X100885000Y-97870000D02*
X100885000Y-101070000D01*
X87235000Y-113870000D02*
X90835000Y-113870000D01*
X87235000Y-117070000D02*
X90835000Y-117070000D01*
X90835000Y-113870000D02*
X90835000Y-117070000D01*
X140885000Y-113870000D02*
X140885000Y-117070000D01*
X137285000Y-113870000D02*
X140885000Y-113870000D01*
X137285000Y-117070000D02*
X140885000Y-117070000D01*
X77260000Y-89870000D02*
X80860000Y-89870000D01*
X77260000Y-93070000D02*
X80860000Y-93070000D01*
X80860000Y-89870000D02*
X80860000Y-93070000D01*
X107260000Y-81870000D02*
X110860000Y-81870000D01*
X107260000Y-85070000D02*
X110860000Y-85070000D01*
X110860000Y-81870000D02*
X110860000Y-85070000D01*
X77260000Y-69070000D02*
X80860000Y-69070000D01*
X80860000Y-65870000D02*
X80860000Y-69070000D01*
X77260000Y-65870000D02*
X80860000Y-65870000D01*
X130835000Y-81870000D02*
X130835000Y-85070000D01*
X127235000Y-85070000D02*
X130835000Y-85070000D01*
X127235000Y-81870000D02*
X130835000Y-81870000D01*
X77260000Y-73870000D02*
X80860000Y-73870000D01*
X77260000Y-77070000D02*
X80860000Y-77070000D01*
X80860000Y-73870000D02*
X80860000Y-77070000D01*
X140885000Y-97870000D02*
X140885000Y-101070000D01*
X137285000Y-101070000D02*
X140885000Y-101070000D01*
X137285000Y-97870000D02*
X140885000Y-97870000D01*
X127235000Y-93070000D02*
X130835000Y-93070000D01*
X130835000Y-89870000D02*
X130835000Y-93070000D01*
X127235000Y-89870000D02*
X130835000Y-89870000D01*
X87235000Y-85070000D02*
X90835000Y-85070000D01*
X90835000Y-81870000D02*
X90835000Y-85070000D01*
X87235000Y-81870000D02*
X90835000Y-81870000D01*
X70860000Y-89870000D02*
X70860000Y-93070000D01*
X67260000Y-89870000D02*
X70860000Y-89870000D01*
X67260000Y-93070000D02*
X70860000Y-93070000D01*
X117260000Y-101070000D02*
X120860000Y-101070000D01*
X117260000Y-97870000D02*
X120860000Y-97870000D01*
X120860000Y-97870000D02*
X120860000Y-101070000D01*
X127235000Y-57870000D02*
X130835000Y-57870000D01*
X130835000Y-57870000D02*
X130835000Y-61070000D01*
X127235000Y-61070000D02*
X130835000Y-61070000D01*
X117260000Y-57870000D02*
X120860000Y-57870000D01*
X120860000Y-57870000D02*
X120860000Y-61070000D01*
X117260000Y-61070000D02*
X120860000Y-61070000D01*
X67260000Y-113870000D02*
X70860000Y-113870000D01*
X70860000Y-113870000D02*
X70860000Y-117070000D01*
X67260000Y-117070000D02*
X70860000Y-117070000D01*
X137285000Y-61070000D02*
X140885000Y-61070000D01*
X140885000Y-57870000D02*
X140885000Y-61070000D01*
X137285000Y-57870000D02*
X140885000Y-57870000D01*
X117260000Y-85070000D02*
X120860000Y-85070000D01*
X120860000Y-81870000D02*
X120860000Y-85070000D01*
X117260000Y-81870000D02*
X120860000Y-81870000D01*
X107260000Y-105870000D02*
X110860000Y-105870000D01*
X107260000Y-109070000D02*
X110860000Y-109070000D01*
X110860000Y-105870000D02*
X110860000Y-109070000D01*
X67260000Y-85070000D02*
X70860000Y-85070000D01*
X67260000Y-81870000D02*
X70860000Y-81870000D01*
X70860000Y-81870000D02*
X70860000Y-85070000D01*
X117260000Y-89870000D02*
X120860000Y-89870000D01*
X117260000Y-93070000D02*
X120860000Y-93070000D01*
X120860000Y-89870000D02*
X120860000Y-93070000D01*
X127235000Y-65870000D02*
X130835000Y-65870000D01*
X130835000Y-65870000D02*
X130835000Y-69070000D01*
X127235000Y-69070000D02*
X130835000Y-69070000D01*
X130835000Y-73870000D02*
X130835000Y-77070000D01*
X127235000Y-77070000D02*
X130835000Y-77070000D01*
X127235000Y-73870000D02*
X130835000Y-73870000D01*
X77260000Y-109070000D02*
X80860000Y-109070000D01*
X77260000Y-105870000D02*
X80860000Y-105870000D01*
X80860000Y-105870000D02*
X80860000Y-109070000D01*
X70860000Y-65870000D02*
X70860000Y-69070000D01*
X67260000Y-69070000D02*
X70860000Y-69070000D01*
X67260000Y-65870000D02*
X70860000Y-65870000D01*
X87235000Y-89870000D02*
X90835000Y-89870000D01*
X87235000Y-93070000D02*
X90835000Y-93070000D01*
X90835000Y-89870000D02*
X90835000Y-93070000D01*
X97285000Y-81870000D02*
X100885000Y-81870000D01*
X100885000Y-81870000D02*
X100885000Y-85070000D01*
X97285000Y-85070000D02*
X100885000Y-85070000D01*
X137285000Y-65870000D02*
X140885000Y-65870000D01*
X137285000Y-69070000D02*
X140885000Y-69070000D01*
X140885000Y-65870000D02*
X140885000Y-69070000D01*
X107260000Y-65870000D02*
X110860000Y-65870000D01*
X110860000Y-65870000D02*
X110860000Y-69070000D01*
X107260000Y-69070000D02*
X110860000Y-69070000D01*
X137285000Y-77070000D02*
X140885000Y-77070000D01*
X140885000Y-73870000D02*
X140885000Y-77070000D01*
X137285000Y-73870000D02*
X140885000Y-73870000D01*
X140885000Y-89870000D02*
X140885000Y-93070000D01*
X137285000Y-93070000D02*
X140885000Y-93070000D01*
X137285000Y-89870000D02*
X140885000Y-89870000D01*
X110860000Y-89870000D02*
X110860000Y-93070000D01*
X107260000Y-89870000D02*
X110860000Y-89870000D01*
X107260000Y-93070000D02*
X110860000Y-93070000D01*
X120860000Y-113870000D02*
X120860000Y-117070000D01*
X117260000Y-117070000D02*
X120860000Y-117070000D01*
X117260000Y-113870000D02*
X120860000Y-113870000D01*
X110860000Y-73870000D02*
X110860000Y-77070000D01*
X107260000Y-73870000D02*
X110860000Y-73870000D01*
X107260000Y-77070000D02*
X110860000Y-77070000D01*
X80860000Y-57870000D02*
X80860000Y-61070000D01*
X77260000Y-57870000D02*
X80860000Y-57870000D01*
X77260000Y-61070000D02*
X80860000Y-61070000D01*
X77260000Y-117070000D02*
X80860000Y-117070000D01*
X80860000Y-113870000D02*
X80860000Y-117070000D01*
X77260000Y-113870000D02*
X80860000Y-113870000D01*
X127235000Y-105870000D02*
X130835000Y-105870000D01*
X127235000Y-109070000D02*
X130835000Y-109070000D01*
X130835000Y-105870000D02*
X130835000Y-109070000D01*
X100885000Y-89870000D02*
X100885000Y-93070000D01*
X97285000Y-93070000D02*
X100885000Y-93070000D01*
X97285000Y-89870000D02*
X100885000Y-89870000D01*
X127235000Y-113870000D02*
X130835000Y-113870000D01*
X130835000Y-113870000D02*
X130835000Y-117070000D01*
X127235000Y-117070000D02*
X130835000Y-117070000D01*
X67260000Y-105870000D02*
X70860000Y-105870000D01*
X67260000Y-109070000D02*
X70860000Y-109070000D01*
X70860000Y-105870000D02*
X70860000Y-109070000D01*
X87235000Y-77070000D02*
X90835000Y-77070000D01*
X90835000Y-73870000D02*
X90835000Y-77070000D01*
X87235000Y-73870000D02*
X90835000Y-73870000D01*
X117260000Y-77070000D02*
X120860000Y-77070000D01*
X120860000Y-73870000D02*
X120860000Y-77070000D01*
X117260000Y-73870000D02*
X120860000Y-73870000D01*
X127235000Y-97870000D02*
X130835000Y-97870000D01*
X127235000Y-101070000D02*
X130835000Y-101070000D01*
X130835000Y-97870000D02*
X130835000Y-101070000D01*
X87235000Y-105870000D02*
X90835000Y-105870000D01*
X87235000Y-109070000D02*
X90835000Y-109070000D01*
X90835000Y-105870000D02*
X90835000Y-109070000D01*
X137285000Y-81870000D02*
X140885000Y-81870000D01*
X137285000Y-85070000D02*
X140885000Y-85070000D01*
X140885000Y-81870000D02*
X140885000Y-85070000D01*
%TD*%
M02*
