%TF.GenerationSoftware,KiCad,Pcbnew,(6.0.5)*%
%TF.CreationDate,2022-10-16T21:39:44+03:00*%
%TF.ProjectId,LED_MATRIX,4c45445f-4d41-4545-9249-582e6b696361,rev?*%
%TF.SameCoordinates,Original*%
%TF.FileFunction,Plated,1,2,PTH,Drill*%
%TF.FilePolarity,Positive*%
%FSLAX46Y46*%
G04 Gerber Fmt 4.6, Leading zero omitted, Abs format (unit mm)*
G04 Created by KiCad (PCBNEW (6.0.5)) date 2022-10-16 21:39:44*
%MOMM*%
%LPD*%
G01*
G04 APERTURE LIST*
%TA.AperFunction,ViaDrill*%
%ADD10C,0.400000*%
%TD*%
%TA.AperFunction,ComponentDrill*%
%ADD11C,1.000000*%
%TD*%
G04 APERTURE END LIST*
D10*
X57760000Y-100170000D03*
X58760000Y-52070000D03*
X58860000Y-41970000D03*
X59260000Y-98670000D03*
X59260000Y-100170000D03*
X59260000Y-103170000D03*
X61360000Y-41970000D03*
X61360000Y-123170000D03*
X61860000Y-124770000D03*
X61960000Y-69470000D03*
X62360000Y-126370000D03*
X62860000Y-127970000D03*
X63460000Y-72670000D03*
X63460000Y-76070000D03*
X63460000Y-81170000D03*
X63460000Y-86270000D03*
X63460000Y-88870000D03*
X63460000Y-104470000D03*
X63860000Y-41970000D03*
X64260000Y-71870000D03*
X64260000Y-83770000D03*
X64260000Y-105270000D03*
X65030000Y-128790000D03*
X65060000Y-72670000D03*
X65060000Y-78670000D03*
X65060000Y-104470000D03*
X65520000Y-127170000D03*
X65560000Y-131370000D03*
X65860000Y-73570000D03*
X65860000Y-105270000D03*
X66060000Y-69470000D03*
X66070000Y-125610000D03*
X66360000Y-130540000D03*
X66460000Y-41970000D03*
X66700000Y-123960000D03*
X67260000Y-103470000D03*
X67360000Y-110570000D03*
X67360000Y-112370000D03*
X67660000Y-135170000D03*
X68960000Y-41970000D03*
X69560000Y-61870000D03*
X69560000Y-62970000D03*
X70660000Y-61870000D03*
X71560000Y-45170000D03*
X71760000Y-61870000D03*
X72860000Y-61870000D03*
X73960000Y-61870000D03*
X74830000Y-128810000D03*
X75060000Y-61870000D03*
X76160000Y-61870000D03*
X77400000Y-132970000D03*
X78760000Y-39570000D03*
X79560000Y-111970000D03*
X79560000Y-113070000D03*
X79960000Y-132170000D03*
X80660000Y-113070000D03*
X80960000Y-51970000D03*
X81060000Y-45170000D03*
X81760000Y-113070000D03*
X82510000Y-131380000D03*
X82860000Y-113070000D03*
X83560000Y-44370000D03*
X83960000Y-113070000D03*
X85060000Y-113070000D03*
X85060000Y-130530000D03*
X86060000Y-43570000D03*
X86060000Y-113070000D03*
X87460000Y-122310000D03*
X87550000Y-129790000D03*
X88660000Y-42770000D03*
X89560000Y-61870000D03*
X89560000Y-62970000D03*
X89760000Y-135170000D03*
X90660000Y-61870000D03*
X91160000Y-41970000D03*
X91760000Y-61870000D03*
X92860000Y-61870000D03*
X93660000Y-45170000D03*
X93960000Y-61870000D03*
X95060000Y-61870000D03*
X96160000Y-61870000D03*
X97090000Y-129810000D03*
X99560000Y-111970000D03*
X99560000Y-113070000D03*
X99570000Y-132960000D03*
X100660000Y-113070000D03*
X100860000Y-39570000D03*
X101760000Y-113070000D03*
X102010000Y-132180000D03*
X102860000Y-113070000D03*
X103160000Y-45170000D03*
X103160000Y-52070000D03*
X103960000Y-113070000D03*
X104640000Y-131400000D03*
X105060000Y-113070000D03*
X105760000Y-44370000D03*
X106160000Y-113070000D03*
X107160000Y-130540000D03*
X108260000Y-43570000D03*
X109560000Y-61870000D03*
X109560000Y-62970000D03*
X109660000Y-122310000D03*
X109770000Y-129630000D03*
X110660000Y-61870000D03*
X110860000Y-42770000D03*
X111760000Y-61870000D03*
X111960000Y-135170000D03*
X112860000Y-61870000D03*
X113360000Y-41970000D03*
X113960000Y-61870000D03*
X115060000Y-61870000D03*
X115860000Y-45170000D03*
X116160000Y-61870000D03*
X119280000Y-129520000D03*
X119560000Y-111970000D03*
X119560000Y-113070000D03*
X120660000Y-113070000D03*
X121760000Y-113070000D03*
X121810000Y-132970000D03*
X122860000Y-113070000D03*
X123160000Y-39570000D03*
X123960000Y-113070000D03*
X124230000Y-132170000D03*
X125060000Y-113070000D03*
X125360000Y-45170000D03*
X125360000Y-52070000D03*
X126160000Y-113070000D03*
X126880000Y-131360000D03*
X127860000Y-44370000D03*
X129420000Y-130530000D03*
X129560000Y-61870000D03*
X129560000Y-62970000D03*
X130460000Y-43570000D03*
X130660000Y-61870000D03*
X131760000Y-61870000D03*
X131910000Y-122310000D03*
X131980000Y-129640000D03*
X132860000Y-61870000D03*
X132960000Y-42770000D03*
X133960000Y-61870000D03*
X134160000Y-135170000D03*
X135060000Y-61870000D03*
X135560000Y-41970000D03*
X136160000Y-61870000D03*
X138240000Y-44410000D03*
X139560000Y-111970000D03*
X139560000Y-113070000D03*
X140660000Y-113070000D03*
X141450000Y-129810000D03*
X141760000Y-113070000D03*
X142860000Y-113070000D03*
X143960000Y-113070000D03*
X143980000Y-132980000D03*
X145060000Y-113070000D03*
X145360000Y-39570000D03*
X146160000Y-113070000D03*
X146260000Y-49570000D03*
X146260000Y-73570000D03*
X146260000Y-104070000D03*
X146530000Y-132920000D03*
X146760000Y-71070000D03*
X147260000Y-78650000D03*
X147260000Y-104070000D03*
X147460000Y-48170000D03*
X147560000Y-76070000D03*
X148260000Y-83770000D03*
X148260000Y-104070000D03*
X148360000Y-81170000D03*
X148660000Y-46870000D03*
X149070000Y-132920000D03*
X149160000Y-86270000D03*
X149230000Y-88830000D03*
X149260000Y-104070000D03*
X149560000Y-45370000D03*
X151060000Y-43770000D03*
X151620000Y-132840000D03*
X151960000Y-43070000D03*
X152860000Y-42370000D03*
X153750000Y-101530000D03*
X153760000Y-41670000D03*
X154150000Y-122310000D03*
X154160000Y-132770000D03*
D11*
%TO.C,REF\u002A\u002A*%
X61460000Y-71066275D03*
X61460000Y-73606275D03*
X61460000Y-76146275D03*
X61460000Y-78686275D03*
X61460000Y-81226275D03*
X61460000Y-83766275D03*
X61460000Y-86306275D03*
X61460000Y-88846275D03*
X61460000Y-91386275D03*
X61460000Y-93926275D03*
X61460000Y-96466275D03*
X61460000Y-99006275D03*
X61460000Y-101546275D03*
X61460000Y-104086275D03*
X151360000Y-71050000D03*
X151360000Y-73590000D03*
X151360000Y-76130000D03*
X151360000Y-78670000D03*
X151360000Y-81210000D03*
X151360000Y-83750000D03*
X151360000Y-86290000D03*
X151360000Y-88830000D03*
X151360000Y-91370000D03*
X151360000Y-93910000D03*
X151360000Y-96450000D03*
X151360000Y-98990000D03*
X151360000Y-101530000D03*
X151360000Y-104070000D03*
M02*
